<svg width="1440" height="886" viewBox="0 0 1440 886" fill="none" xmlns="http://www.w3.org/2000/svg">
<g opacity="0.5">
<path d="M198.409 506.778C198.469 507.407 197.232 508.079 195.332 508.566C194.373 508.81 193.68 509.651 193.62 510.638C193.502 512.595 193.075 513.937 192.446 513.998C191.816 514.058 191.145 512.819 190.659 510.92C190.413 509.961 189.574 509.269 188.586 509.209C186.628 509.09 185.281 508.664 185.221 508.035C185.161 507.401 186.402 506.728 188.3 506.244C189.26 506 189.956 505.16 190.015 504.171C190.134 502.213 190.56 500.87 191.19 500.81C191.819 500.75 192.491 501.988 192.977 503.889C193.223 504.849 194.063 505.543 195.053 505.601C197.007 505.719 198.348 506.145 198.409 506.778Z" fill="white"/>
<path d="M234.746 131.258C234.806 131.887 233.567 132.559 231.668 133.045C230.709 133.29 230.016 134.13 229.957 135.118C229.837 137.073 229.412 138.417 228.781 138.477C228.152 138.537 227.48 137.299 226.995 135.4C226.749 134.441 225.91 133.747 224.922 133.688C222.963 133.569 221.617 133.144 221.558 132.514C221.498 131.881 222.738 131.208 224.637 130.725C225.597 130.48 226.292 129.64 226.352 128.65C226.47 126.692 226.896 125.35 227.526 125.29C228.155 125.23 228.827 126.468 229.314 128.369C229.558 129.328 230.4 130.022 231.388 130.082C233.342 130.197 234.685 130.624 234.746 131.258Z" fill="white"/>
<path d="M170.838 318.092C170.863 318.53 169.987 318.961 168.659 319.248C167.988 319.392 167.485 319.954 167.417 320.637C167.283 321.989 166.952 322.909 166.514 322.933C166.076 322.957 165.644 322.082 165.358 320.754C165.214 320.083 164.651 319.58 163.968 319.513C162.615 319.378 161.694 319.047 161.669 318.609C161.644 318.169 162.521 317.736 163.85 317.451C164.521 317.307 165.025 316.744 165.093 316.061C165.228 314.707 165.559 313.789 165.996 313.763C166.434 313.739 166.866 314.615 167.152 315.945C167.297 316.616 167.861 317.119 168.544 317.186C169.895 317.32 170.813 317.651 170.838 318.092Z" fill="white"/>
<path d="M466.075 128.481C466.075 129.194 464.611 129.817 462.426 130.159C461.322 130.332 460.452 131.202 460.279 132.306C459.936 134.493 459.314 135.956 458.599 135.956C457.886 135.956 457.264 134.493 456.921 132.306C456.748 131.202 455.878 130.332 454.774 130.159C452.587 129.817 451.12 129.194 451.12 128.481C451.12 127.763 452.585 127.139 454.772 126.799C455.877 126.627 456.748 125.756 456.921 124.652C457.264 122.463 457.886 121 458.599 121C459.314 121 459.936 122.463 460.279 124.652C460.452 125.756 461.323 126.627 462.428 126.799C464.612 127.139 466.075 127.763 466.075 128.481Z" fill="white"/>
<path d="M484.801 333.131C484.801 334.42 483.756 335.465 482.467 335.465C481.177 335.465 480.133 334.42 480.133 333.131C480.133 331.841 481.177 330.797 482.467 330.797C483.756 330.797 484.801 331.841 484.801 333.131Z" fill="white"/>
<path d="M511.618 370.559C511.691 371.842 510.709 372.941 509.425 373.014C508.142 373.086 507.043 372.105 506.97 370.821C506.898 369.538 507.879 368.437 509.163 368.365C510.446 368.293 511.545 369.275 511.618 370.559Z" fill="white"/>
<path d="M408.851 501.865C408.937 503.392 407.77 504.699 406.244 504.785C404.718 504.87 403.411 503.704 403.324 502.177C403.239 500.652 404.406 499.344 405.932 499.258C407.458 499.172 408.765 500.34 408.851 501.865Z" fill="white"/>
<path d="M155.011 244.27C155.033 245.798 153.811 247.055 152.283 247.077C150.755 247.098 149.498 245.877 149.476 244.348C149.455 242.82 150.676 241.563 152.204 241.541C153.733 241.52 154.989 242.741 155.011 244.27Z" fill="white"/>
<path d="M511.958 202.354C511.958 203.643 510.912 204.688 509.624 204.688C508.335 204.688 507.29 203.643 507.29 202.354C507.29 201.066 508.335 200.02 509.624 200.02C510.912 200.02 511.958 201.066 511.958 202.354Z" fill="white"/>
<path d="M172.276 154.405C172.297 155.933 171.076 157.19 169.548 157.212C168.019 157.233 166.763 156.012 166.741 154.484C166.719 152.955 167.941 151.698 169.469 151.676C170.997 151.655 172.254 152.877 172.276 154.405Z" fill="white"/>
<path d="M139.232 476.121C139.369 477.562 138.312 478.842 136.87 478.979C135.429 479.117 134.149 478.06 134.012 476.618C133.875 475.177 134.932 473.897 136.373 473.76C137.815 473.622 139.094 474.679 139.232 476.121Z" fill="white"/>
<path d="M504.336 152.136C504.336 152.798 503.798 153.335 503.135 153.335C502.473 153.335 501.935 152.798 501.935 152.136C501.935 151.473 502.473 150.935 503.135 150.935C503.798 150.935 504.336 151.473 504.336 152.136Z" fill="white"/>
<path d="M459.916 486.376C459.959 487.162 459.36 487.834 458.574 487.878C457.79 487.922 457.117 487.322 457.073 486.537C457.029 485.752 457.629 485.08 458.413 485.035C459.199 484.991 459.871 485.592 459.916 486.376Z" fill="white"/>
<path d="M208.766 192.23C208.777 193.016 208.148 193.661 207.362 193.673C206.577 193.684 205.93 193.056 205.92 192.269C205.908 191.484 206.536 190.837 207.322 190.827C208.109 190.815 208.754 191.443 208.766 192.23Z" fill="white"/>
<path d="M223.298 322.912C223.309 323.698 222.681 324.345 221.895 324.356C221.109 324.367 220.463 323.739 220.451 322.953C220.441 322.167 221.069 321.521 221.854 321.509C222.64 321.499 223.287 322.127 223.298 322.912Z" fill="white"/>
<path d="M190.408 399.631C190.478 400.372 189.934 401.03 189.193 401.101C188.452 401.171 187.793 400.628 187.723 399.887C187.652 399.145 188.196 398.487 188.937 398.416C189.679 398.346 190.336 398.89 190.408 399.631Z" fill="white"/>
<path d="M143.621 365.296C143.621 366.744 142.448 367.918 141 367.918C139.552 367.918 138.378 366.744 138.378 365.296C138.378 363.848 139.552 362.674 141 362.674C142.448 362.674 143.621 363.848 143.621 365.296Z" fill="white"/>
<path d="M3.19016 685.97C3.25001 686.599 2.01231 687.272 0.112474 687.758C-0.846359 688.002 -1.53907 688.843 -1.59891 689.83C-1.71734 691.787 -2.14391 693.129 -2.77294 693.19C-3.40325 693.25 -4.0743 692.011 -4.56072 690.112C-4.80648 689.154 -5.64561 688.461 -6.63373 688.401C-8.59087 688.283 -9.93808 687.856 -9.99793 687.227C-10.0578 686.593 -8.81753 685.921 -6.91897 685.437C-5.95886 685.192 -5.26361 684.352 -5.20376 683.364C-5.08534 681.405 -4.65877 680.062 -4.02973 680.002C-3.4007 679.942 -2.72838 681.18 -2.24196 683.081C-1.9962 684.041 -1.15579 684.735 -0.166395 684.794C1.7882 684.911 3.12904 685.337 3.19016 685.97Z" fill="white"/>
<path d="M535.746 410.258C535.806 410.887 534.567 411.559 532.668 412.045C531.709 412.29 531.016 413.13 530.957 414.118C530.837 416.073 530.412 417.417 529.781 417.477C529.152 417.537 528.48 416.299 527.995 414.4C527.749 413.441 526.91 412.747 525.922 412.688C523.963 412.569 522.617 412.144 522.558 411.514C522.498 410.881 523.738 410.208 525.637 409.725C526.597 409.48 527.292 408.64 527.352 407.65C527.47 405.692 527.896 404.35 528.526 404.29C529.155 404.23 529.827 405.468 530.314 407.369C530.558 408.328 531.4 409.022 532.388 409.082C534.342 409.197 535.685 409.624 535.746 410.258Z" fill="white"/>
<path d="M471.838 597.092C471.863 597.53 470.987 597.961 469.659 598.248C468.988 598.392 468.485 598.954 468.417 599.637C468.283 600.989 467.952 601.909 467.514 601.933C467.076 601.957 466.644 601.082 466.358 599.754C466.214 599.083 465.651 598.58 464.968 598.513C463.615 598.378 462.694 598.047 462.669 597.609C462.644 597.169 463.521 596.736 464.85 596.451C465.521 596.307 466.025 595.744 466.093 595.061C466.228 593.707 466.559 592.789 466.996 592.763C467.434 592.739 467.866 593.615 468.152 594.945C468.297 595.616 468.861 596.119 469.544 596.186C470.895 596.32 471.813 596.651 471.838 597.092Z" fill="white"/>
<path d="M703.955 28.481C703.955 29.1941 702.491 29.8168 700.306 30.1593C699.202 30.3325 698.332 31.2022 698.159 32.3062C697.817 34.4925 697.194 35.9556 696.48 35.9556C695.767 35.9556 695.144 34.4925 694.801 32.3062C694.628 31.2022 693.759 30.3325 692.655 30.1593C690.467 29.8168 689 29.1941 689 28.481C689 27.7628 690.466 27.1389 692.652 26.7989C693.757 26.627 694.628 25.756 694.801 24.652C695.144 22.4632 695.767 21.0001 696.48 21.0001C697.194 21.0001 697.817 22.4632 698.159 24.652C698.332 25.756 699.203 26.627 700.309 26.7989C702.492 27.1389 703.955 27.7628 703.955 28.481Z" fill="white"/>
<path d="M785.801 612.131C785.801 613.42 784.756 614.465 783.467 614.465C782.177 614.465 781.133 613.42 781.133 612.131C781.133 610.841 782.177 609.797 783.467 609.797C784.756 609.797 785.801 610.841 785.801 612.131Z" fill="white"/>
<path d="M812.618 649.559C812.691 650.842 811.709 651.941 810.425 652.014C809.142 652.086 808.043 651.105 807.97 649.821C807.898 648.538 808.879 647.437 810.163 647.365C811.446 647.293 812.545 648.275 812.618 649.559Z" fill="white"/>
<path d="M709.851 780.865C709.937 782.392 708.77 783.699 707.244 783.785C705.718 783.87 704.411 782.704 704.324 781.177C704.239 779.652 705.406 778.344 706.932 778.258C708.458 778.172 709.765 779.34 709.851 780.865Z" fill="white"/>
<path d="M456.011 523.27C456.033 524.798 454.811 526.055 453.283 526.077C451.755 526.098 450.498 524.877 450.476 523.348C450.455 521.82 451.676 520.563 453.204 520.541C454.733 520.52 455.989 521.741 456.011 523.27Z" fill="white"/>
<path d="M812.958 481.354C812.958 482.643 811.912 483.688 810.624 483.688C809.335 483.688 808.29 482.643 808.29 481.354C808.29 480.066 809.335 479.02 810.624 479.02C811.912 479.02 812.958 480.066 812.958 481.354Z" fill="white"/>
<path d="M473.276 433.405C473.297 434.933 472.076 436.19 470.548 436.212C469.019 436.233 467.763 435.012 467.741 433.484C467.719 431.955 468.941 430.698 470.469 430.676C471.997 430.655 473.254 431.877 473.276 433.405Z" fill="white"/>
<path d="M440.232 755.121C440.369 756.562 439.312 757.842 437.87 757.979C436.429 758.117 435.149 757.06 435.012 755.618C434.875 754.177 435.932 752.897 437.373 752.76C438.815 752.622 440.094 753.679 440.232 755.121Z" fill="white"/>
<path d="M805.336 431.136C805.336 431.798 804.798 432.335 804.135 432.335C803.473 432.335 802.935 431.798 802.935 431.136C802.935 430.473 803.473 429.935 804.135 429.935C804.798 429.935 805.336 430.473 805.336 431.136Z" fill="white"/>
<path d="M760.916 765.376C760.959 766.162 760.36 766.834 759.574 766.878C758.79 766.922 758.117 766.322 758.073 765.537C758.029 764.752 758.629 764.08 759.413 764.035C760.199 763.991 760.871 764.592 760.916 765.376Z" fill="white"/>
<path d="M509.766 471.23C509.777 472.016 509.148 472.661 508.362 472.673C507.577 472.684 506.93 472.056 506.92 471.269C506.908 470.484 507.536 469.837 508.322 469.827C509.109 469.815 509.754 470.443 509.766 471.23Z" fill="white"/>
<path d="M524.298 601.912C524.309 602.698 523.681 603.345 522.895 603.356C522.109 603.367 521.463 602.739 521.451 601.953C521.441 601.167 522.069 600.521 522.854 600.509C523.64 600.499 524.287 601.127 524.298 601.912Z" fill="white"/>
<path d="M491.408 678.631C491.478 679.372 490.934 680.03 490.193 680.101C489.452 680.171 488.793 679.628 488.723 678.887C488.652 678.145 489.196 677.487 489.937 677.416C490.679 677.346 491.336 677.89 491.408 678.631Z" fill="white"/>
<path d="M444.621 644.296C444.621 645.744 443.448 646.918 442 646.918C440.552 646.918 439.378 645.744 439.378 644.296C439.378 642.848 440.552 641.674 442 641.674C443.448 641.674 444.621 642.848 444.621 644.296Z" fill="white"/>
<path d="M674.409 631.778C674.469 632.407 673.232 633.079 671.332 633.566C670.373 633.81 669.68 634.651 669.62 635.638C669.502 637.595 669.075 638.937 668.446 638.998C667.816 639.058 667.145 637.819 666.659 635.92C666.413 634.961 665.574 634.269 664.586 634.209C662.628 634.09 661.281 633.664 661.221 633.035C661.161 632.401 662.402 631.728 664.3 631.244C665.26 631 665.956 630.16 666.015 629.171C666.134 627.213 666.56 625.87 667.19 625.81C667.819 625.75 668.491 626.988 668.977 628.889C669.223 629.849 670.063 630.543 671.053 630.601C673.007 630.719 674.348 631.145 674.409 631.778Z" fill="white"/>
<path d="M710.746 256.258C710.806 256.887 709.567 257.559 707.668 258.045C706.709 258.29 706.016 259.13 705.957 260.118C705.837 262.073 705.412 263.417 704.781 263.477C704.152 263.537 703.48 262.299 702.995 260.4C702.749 259.441 701.91 258.747 700.922 258.688C698.963 258.569 697.617 258.144 697.558 257.514C697.498 256.881 698.738 256.208 700.637 255.725C701.597 255.48 702.292 254.64 702.352 253.65C702.47 251.692 702.896 250.35 703.526 250.29C704.155 250.23 704.827 251.468 705.314 253.369C705.558 254.328 706.4 255.022 707.388 255.082C709.342 255.197 710.685 255.624 710.746 256.258Z" fill="white"/>
<path d="M748.169 124.329C748.194 124.767 747.318 125.198 745.99 125.485C745.319 125.629 744.817 126.192 744.749 126.874C744.614 128.226 744.283 129.146 743.845 129.17C743.408 129.194 742.975 128.319 742.689 126.991C742.545 126.32 741.982 125.817 741.299 125.75C739.946 125.615 739.025 125.284 739.001 124.846C738.976 124.406 739.853 123.973 741.181 123.688C741.853 123.544 742.357 122.981 742.425 122.298C742.559 120.944 742.89 120.026 743.328 120.001C743.765 119.976 744.198 120.852 744.484 122.182C744.628 122.853 745.192 123.356 745.875 123.423C747.226 123.557 748.144 123.888 748.169 124.329Z" fill="white"/>
<path d="M619.955 139.481C619.955 140.194 618.491 140.817 616.306 141.159C615.202 141.332 614.332 142.202 614.159 143.306C613.817 145.493 613.194 146.956 612.48 146.956C611.767 146.956 611.144 145.493 610.801 143.306C610.628 142.202 609.759 141.332 608.655 141.159C606.467 140.817 605 140.194 605 139.481C605 138.763 606.466 138.139 608.652 137.799C609.757 137.627 610.628 136.756 610.801 135.652C611.144 133.463 611.767 132 612.48 132C613.194 132 613.817 133.463 614.159 135.652C614.332 136.756 615.203 137.627 616.309 137.799C618.492 138.139 619.955 138.763 619.955 139.481Z" fill="white"/>
<path d="M960.801 458.131C960.801 459.42 959.756 460.465 958.467 460.465C957.177 460.465 956.133 459.42 956.133 458.131C956.133 456.841 957.177 455.797 958.467 455.797C959.756 455.797 960.801 456.841 960.801 458.131Z" fill="white"/>
<path d="M884.851 626.865C884.937 628.392 883.77 629.699 882.244 629.785C880.718 629.87 879.411 628.704 879.324 627.177C879.239 625.652 880.406 624.344 881.932 624.258C883.458 624.172 884.765 625.34 884.851 626.865Z" fill="white"/>
<path d="M555.535 31.7289C555.557 33.2569 554.335 34.5137 552.807 34.5354C551.279 34.557 550.022 33.3359 550 31.8066C549.979 30.2786 551.2 29.0218 552.728 29.0001C554.257 28.9785 555.514 30.1996 555.535 31.7289Z" fill="white"/>
<path d="M648.276 279.405C648.297 280.933 647.076 282.19 645.548 282.212C644.019 282.233 642.763 281.012 642.741 279.484C642.719 277.955 643.941 276.698 645.469 276.676C646.997 276.655 648.254 277.877 648.276 279.405Z" fill="white"/>
<path d="M935.916 611.376C935.959 612.162 935.36 612.834 934.574 612.878C933.79 612.922 933.117 612.322 933.073 611.537C933.029 610.752 933.629 610.08 934.413 610.035C935.199 609.991 935.871 610.592 935.916 611.376Z" fill="white"/>
<path d="M684.766 317.23C684.777 318.016 684.148 318.661 683.362 318.673C682.577 318.684 681.93 318.056 681.92 317.269C681.908 316.484 682.536 315.837 683.322 315.827C684.109 315.815 684.754 316.443 684.766 317.23Z" fill="white"/>
<path d="M699.298 447.912C699.309 448.698 698.681 449.345 697.895 449.356C697.109 449.367 696.463 448.739 696.451 447.953C696.441 447.167 697.069 446.521 697.854 446.509C698.64 446.499 699.287 447.127 699.298 447.912Z" fill="white"/>
<path d="M666.408 524.631C666.478 525.372 665.934 526.03 665.193 526.101C664.452 526.171 663.793 525.628 663.723 524.887C663.652 524.145 664.196 523.487 664.937 523.416C665.679 523.346 666.336 523.89 666.408 524.631Z" fill="white"/>
<path d="M619.621 490.296C619.621 491.744 618.448 492.918 617 492.918C615.552 492.918 614.378 491.744 614.378 490.296C614.378 488.848 615.552 487.674 617 487.674C618.448 487.674 619.621 488.848 619.621 490.296Z" fill="white"/>
<path d="M1063.75 24.2581C1063.81 24.8871 1062.57 25.5595 1060.67 26.0446C1059.71 26.2904 1059.02 27.1295 1058.96 28.1176C1058.84 30.0735 1058.41 31.4168 1057.78 31.4767C1057.15 31.5365 1056.48 30.2989 1055.99 28.4003C1055.75 27.4415 1054.91 26.7475 1053.92 26.6876C1051.96 26.5692 1050.62 26.1439 1050.56 25.5136C1050.5 24.8808 1051.74 24.2084 1053.64 23.7246C1054.6 23.4801 1055.29 22.6396 1055.35 21.6502C1055.47 19.6918 1055.9 18.3497 1056.53 18.2899C1057.15 18.2301 1057.83 19.4678 1058.31 21.3689C1058.56 22.3277 1059.4 23.0217 1060.39 23.0815C1062.34 23.1974 1063.68 23.624 1063.75 24.2581Z" fill="white"/>
<path d="M1135.17 134.329C1135.19 134.767 1134.32 135.198 1132.99 135.485C1132.32 135.629 1131.82 136.192 1131.75 136.874C1131.61 138.226 1131.28 139.146 1130.85 139.17C1130.41 139.194 1129.98 138.319 1129.69 136.991C1129.55 136.32 1128.98 135.817 1128.3 135.75C1126.95 135.615 1126.03 135.284 1126 134.846C1125.98 134.406 1126.85 133.973 1128.18 133.688C1128.85 133.544 1129.36 132.981 1129.42 132.298C1129.56 130.944 1129.89 130.026 1130.33 130.001C1130.77 129.976 1131.2 130.852 1131.48 132.182C1131.63 132.853 1132.19 133.356 1132.88 133.423C1134.23 133.557 1135.14 133.888 1135.17 134.329Z" fill="white"/>
<path d="M1295.08 21.481C1295.08 22.1941 1293.61 22.8168 1291.43 23.1593C1290.32 23.3325 1289.45 24.2022 1289.28 25.3062C1288.94 27.4925 1288.31 28.9556 1287.6 28.9556C1286.89 28.9556 1286.26 27.4925 1285.92 25.3062C1285.75 24.2022 1284.88 23.3325 1283.77 23.1593C1281.59 22.8168 1280.12 22.1941 1280.12 21.481C1280.12 20.7628 1281.59 20.1389 1283.77 19.7989C1284.88 19.627 1285.75 18.756 1285.92 17.652C1286.26 15.4632 1286.89 14.0001 1287.6 14.0001C1288.31 14.0001 1288.94 15.4632 1289.28 17.652C1289.45 18.756 1290.32 19.627 1291.43 19.7989C1293.61 20.1389 1295.08 20.7628 1295.08 21.481Z" fill="white"/>
<path d="M1313.8 226.131C1313.8 227.42 1312.76 228.465 1311.47 228.465C1310.18 228.465 1309.13 227.42 1309.13 226.131C1309.13 224.841 1310.18 223.797 1311.47 223.797C1312.76 223.797 1313.8 224.841 1313.8 226.131Z" fill="white"/>
<path d="M1340.62 263.559C1340.69 264.842 1339.71 265.941 1338.43 266.014C1337.14 266.086 1336.04 265.105 1335.97 263.821C1335.9 262.538 1336.88 261.437 1338.16 261.365C1339.45 261.293 1340.55 262.275 1340.62 263.559Z" fill="white"/>
<path d="M1237.85 394.865C1237.94 396.392 1236.77 397.699 1235.24 397.785C1233.72 397.87 1232.41 396.704 1232.32 395.177C1232.24 393.652 1233.41 392.344 1234.93 392.258C1236.46 392.172 1237.77 393.34 1237.85 394.865Z" fill="white"/>
<path d="M677.535 199.729C677.557 201.257 676.335 202.514 674.807 202.536C673.279 202.557 672.022 201.336 672 199.807C671.979 198.279 673.2 197.022 674.728 197C676.257 196.979 677.514 198.2 677.535 199.729Z" fill="white"/>
<path d="M1340.96 95.3544C1340.96 96.6431 1339.91 97.6885 1338.62 97.6885C1337.34 97.6885 1336.29 96.6431 1336.29 95.3544C1336.29 94.0658 1337.34 93.0204 1338.62 93.0204C1339.91 93.0204 1340.96 94.0658 1340.96 95.3544Z" fill="white"/>
<path d="M1001.28 47.4052C1001.3 48.9332 1000.08 50.19 998.548 50.2116C997.019 50.2333 995.763 49.0121 995.741 47.4841C995.719 45.9548 996.941 44.698 998.469 44.6764C999.997 44.6547 1001.25 45.8772 1001.28 47.4052Z" fill="white"/>
<path d="M968.232 369.121C968.369 370.562 967.312 371.842 965.87 371.979C964.429 372.117 963.149 371.06 963.012 369.618C962.875 368.177 963.932 366.897 965.373 366.76C966.815 366.622 968.094 367.679 968.232 369.121Z" fill="white"/>
<path d="M1333.34 45.1359C1333.34 45.7981 1332.8 46.3354 1332.13 46.3354C1331.47 46.3354 1330.94 45.7981 1330.94 45.1359C1330.94 44.4725 1331.47 43.9352 1332.13 43.9352C1332.8 43.9352 1333.34 44.4725 1333.34 45.1359Z" fill="white"/>
<path d="M1288.92 379.376C1288.96 380.162 1288.36 380.834 1287.57 380.878C1286.79 380.922 1286.12 380.322 1286.07 379.537C1286.03 378.752 1286.63 378.08 1287.41 378.035C1288.2 377.991 1288.87 378.592 1288.92 379.376Z" fill="white"/>
<path d="M1037.77 85.23C1037.78 86.0157 1037.15 86.6612 1036.36 86.6727C1035.58 86.6842 1034.93 86.0564 1034.92 85.2695C1034.91 84.4838 1035.54 83.8369 1036.32 83.8268C1037.11 83.8153 1037.75 84.4431 1037.77 85.23Z" fill="white"/>
<path d="M1052.3 215.912C1052.31 216.698 1051.68 217.345 1050.9 217.356C1050.11 217.366 1049.46 216.739 1049.45 215.953C1049.44 215.167 1050.07 214.52 1050.85 214.509C1051.64 214.499 1052.29 215.127 1052.3 215.912Z" fill="white"/>
<path d="M1019.41 292.631C1019.48 293.372 1018.93 294.03 1018.19 294.101C1017.45 294.171 1016.79 293.628 1016.72 292.887C1016.65 292.145 1017.2 291.487 1017.94 291.416C1018.68 291.346 1019.34 291.89 1019.41 292.631Z" fill="white"/>
<path d="M972.621 258.296C972.621 259.744 971.448 260.918 970 260.918C968.552 260.918 967.378 259.744 967.378 258.296C967.378 256.848 968.552 255.674 970 255.674C971.448 255.674 972.621 256.848 972.621 258.296Z" fill="white"/>
<path d="M868.409 385.778C868.469 386.407 867.232 387.079 865.332 387.566C864.373 387.81 863.68 388.651 863.62 389.638C863.502 391.595 863.075 392.937 862.446 392.998C861.816 393.058 861.145 391.819 860.659 389.92C860.413 388.961 859.574 388.269 858.586 388.209C856.628 388.09 855.281 387.664 855.221 387.035C855.161 386.401 856.402 385.728 858.3 385.244C859.26 385 859.956 384.16 860.015 383.171C860.134 381.213 860.56 379.87 861.19 379.81C861.819 379.75 862.491 380.988 862.977 382.889C863.223 383.849 864.063 384.543 865.053 384.601C867.007 384.719 868.348 385.145 868.409 385.778Z" fill="white"/>
<path d="M904.746 10.2581C904.806 10.8871 903.567 11.5595 901.668 12.0446C900.709 12.2904 900.016 13.1295 899.957 14.1176C899.837 16.0735 899.412 17.4168 898.781 17.4767C898.152 17.5365 897.48 16.2989 896.995 14.4003C896.749 13.4415 895.91 12.7475 894.922 12.6876C892.963 12.5692 891.617 12.1439 891.558 11.5136C891.498 10.8808 892.738 10.2084 894.637 9.72457C895.597 9.48008 896.292 8.63964 896.352 7.65025C896.47 5.69184 896.896 4.34975 897.526 4.2899C898.155 4.23005 898.827 5.46776 899.314 7.36887C899.558 8.3277 900.4 9.02168 901.388 9.08153C903.342 9.1974 904.685 9.62395 904.746 10.2581Z" fill="white"/>
<path d="M840.838 197.092C840.863 197.53 839.987 197.961 838.659 198.248C837.988 198.392 837.485 198.955 837.417 199.637C837.283 200.989 836.952 201.909 836.514 201.933C836.076 201.957 835.644 201.082 835.358 199.754C835.214 199.083 834.651 198.58 833.968 198.513C832.615 198.378 831.694 198.047 831.669 197.609C831.644 197.169 832.521 196.736 833.85 196.451C834.521 196.307 835.025 195.744 835.093 195.061C835.228 193.707 835.559 192.789 835.996 192.764C836.434 192.739 836.866 193.615 837.152 194.945C837.297 195.616 837.861 196.119 838.544 196.186C839.895 196.32 840.813 196.651 840.838 197.092Z" fill="white"/>
<path d="M1136.08 7.481C1136.08 8.19408 1134.61 8.81676 1132.43 9.15929C1131.32 9.33246 1130.45 10.2022 1130.28 11.3062C1129.94 13.4925 1129.31 14.9556 1128.6 14.9556C1127.89 14.9556 1127.26 13.4925 1126.92 11.3062C1126.75 10.2022 1125.88 9.33246 1124.77 9.15929C1122.59 8.81676 1121.12 8.19408 1121.12 7.481C1121.12 6.76283 1122.59 6.13892 1124.77 5.79894C1125.88 5.62703 1126.75 4.75604 1126.92 3.65205C1127.26 1.46316 1127.89 7.01267e-05 1128.6 7.01267e-05C1129.31 7.01267e-05 1129.94 1.46316 1130.28 3.65205C1130.45 4.75604 1131.32 5.62703 1132.43 5.79894C1134.61 6.13892 1136.08 6.76283 1136.08 7.481Z" fill="white"/>
<path d="M1154.8 212.131C1154.8 213.42 1153.76 214.465 1152.47 214.465C1151.18 214.465 1150.13 213.42 1150.13 212.131C1150.13 210.841 1151.18 209.797 1152.47 209.797C1153.76 209.797 1154.8 210.841 1154.8 212.131Z" fill="white"/>
<path d="M1181.62 249.559C1181.69 250.842 1180.71 251.941 1179.43 252.014C1178.14 252.086 1177.04 251.105 1176.97 249.821C1176.9 248.537 1177.88 247.437 1179.16 247.365C1180.45 247.293 1181.55 248.275 1181.62 249.559Z" fill="white"/>
<path d="M1078.85 380.865C1078.94 382.392 1077.77 383.699 1076.24 383.785C1074.72 383.87 1073.41 382.704 1073.32 381.177C1073.24 379.652 1074.41 378.344 1075.93 378.258C1077.46 378.172 1078.77 379.34 1078.85 380.865Z" fill="white"/>
<path d="M825.011 123.27C825.033 124.798 823.811 126.055 822.283 126.077C820.755 126.099 819.498 124.877 819.476 123.348C819.455 121.82 820.676 120.563 822.204 120.542C823.733 120.52 824.989 121.741 825.011 123.27Z" fill="white"/>
<path d="M1181.96 81.3544C1181.96 82.6431 1180.91 83.6885 1179.62 83.6885C1178.34 83.6885 1177.29 82.6431 1177.29 81.3544C1177.29 80.0658 1178.34 79.0204 1179.62 79.0204C1180.91 79.0204 1181.96 80.0658 1181.96 81.3544Z" fill="white"/>
<path d="M842.276 33.4052C842.297 34.9332 841.076 36.19 839.548 36.2116C838.019 36.2333 836.763 35.0121 836.741 33.4841C836.719 31.9548 837.941 30.698 839.469 30.6764C840.997 30.6547 842.254 31.8772 842.276 33.4052Z" fill="white"/>
<path d="M809.232 355.121C809.369 356.562 808.312 357.842 806.87 357.979C805.429 358.117 804.149 357.06 804.012 355.618C803.875 354.177 804.932 352.897 806.373 352.76C807.815 352.622 809.094 353.679 809.232 355.121Z" fill="white"/>
<path d="M1174.34 31.1359C1174.34 31.7981 1173.8 32.3354 1173.13 32.3354C1172.47 32.3354 1171.94 31.7981 1171.94 31.1359C1171.94 30.4725 1172.47 29.9352 1173.13 29.9352C1173.8 29.9352 1174.34 30.4725 1174.34 31.1359Z" fill="white"/>
<path d="M1129.92 365.376C1129.96 366.162 1129.36 366.834 1128.57 366.878C1127.79 366.922 1127.12 366.322 1127.07 365.537C1127.03 364.752 1127.63 364.08 1128.41 364.035C1129.2 363.991 1129.87 364.592 1129.92 365.376Z" fill="white"/>
<path d="M878.766 71.23C878.777 72.0157 878.148 72.6612 877.362 72.6727C876.577 72.6842 875.93 72.0564 875.92 71.2695C875.908 70.4838 876.536 69.8369 877.322 69.8268C878.109 69.8153 878.754 70.4431 878.766 71.23Z" fill="white"/>
<path d="M893.298 201.912C893.309 202.698 892.681 203.345 891.895 203.356C891.109 203.366 890.463 202.739 890.451 201.953C890.441 201.167 891.069 200.52 891.854 200.509C892.64 200.499 893.287 201.127 893.298 201.912Z" fill="white"/>
<path d="M860.408 278.631C860.478 279.372 859.934 280.03 859.193 280.101C858.452 280.171 857.793 279.628 857.723 278.887C857.652 278.145 858.196 277.487 858.937 277.416C859.679 277.346 860.336 277.89 860.408 278.631Z" fill="white"/>
<path d="M813.621 244.296C813.621 245.744 812.448 246.918 811 246.918C809.552 246.918 808.378 245.744 808.378 244.296C808.378 242.848 809.552 241.674 811 241.674C812.448 241.674 813.621 242.848 813.621 244.296Z" fill="white"/>
<path d="M994.19 741.97C994.25 742.599 993.012 743.272 991.112 743.758C990.154 744.002 989.461 744.843 989.401 745.83C989.283 747.787 988.856 749.129 988.227 749.19C987.597 749.25 986.926 748.011 986.439 746.112C986.194 745.154 985.354 744.461 984.366 744.401C982.409 744.283 981.062 743.856 981.002 743.227C980.942 742.593 982.182 741.921 984.081 741.437C985.041 741.192 985.736 740.352 985.796 739.364C985.915 737.405 986.341 736.062 986.97 736.002C987.599 735.942 988.272 737.18 988.758 739.081C989.004 740.041 989.844 740.735 990.834 740.794C992.788 740.911 994.129 741.337 994.19 741.97Z" fill="white"/>
<path d="M1326.75 512.258C1326.81 512.887 1325.57 513.559 1323.67 514.045C1322.71 514.29 1322.02 515.13 1321.96 516.118C1321.84 518.073 1321.41 519.417 1320.78 519.477C1320.15 519.537 1319.48 518.299 1318.99 516.4C1318.75 515.441 1317.91 514.747 1316.92 514.688C1314.96 514.569 1313.62 514.144 1313.56 513.514C1313.5 512.881 1314.74 512.208 1316.64 511.725C1317.6 511.48 1318.29 510.64 1318.35 509.65C1318.47 507.692 1318.9 506.35 1319.53 506.29C1320.15 506.23 1320.83 507.468 1321.31 509.369C1321.56 510.328 1322.4 511.022 1323.39 511.082C1325.34 511.197 1326.68 511.624 1326.75 512.258Z" fill="white"/>
<path d="M1137.84 607.329C1137.86 607.767 1136.99 608.198 1135.66 608.485C1134.99 608.629 1134.49 609.192 1134.42 609.874C1134.28 611.226 1133.95 612.146 1133.51 612.17C1133.08 612.194 1132.64 611.319 1132.36 609.991C1132.21 609.32 1131.65 608.817 1130.97 608.75C1129.61 608.615 1128.69 608.284 1128.67 607.846C1128.64 607.406 1129.52 606.973 1130.85 606.688C1131.52 606.544 1132.03 605.981 1132.09 605.298C1132.23 603.944 1132.56 603.026 1133 603.001C1133.43 602.976 1133.87 603.852 1134.15 605.182C1134.3 605.853 1134.86 606.356 1135.54 606.423C1136.89 606.557 1137.81 606.888 1137.84 607.329Z" fill="white"/>
<path d="M1247.01 625.27C1247.03 626.798 1245.81 628.055 1244.28 628.077C1242.75 628.098 1241.5 626.877 1241.48 625.348C1241.45 623.82 1242.68 622.563 1244.2 622.541C1245.73 622.52 1246.99 623.741 1247.01 625.27Z" fill="white"/>
<path d="M1264.28 535.405C1264.3 536.933 1263.08 538.19 1261.55 538.212C1260.02 538.233 1258.76 537.012 1258.74 535.484C1258.72 533.955 1259.94 532.698 1261.47 532.676C1263 532.655 1264.25 533.877 1264.28 535.405Z" fill="white"/>
<path d="M1106.23 765.358C1106.37 766.799 1105.31 768.079 1103.87 768.216C1102.43 768.354 1101.15 767.297 1101.01 765.855C1100.87 764.414 1101.93 763.134 1103.37 762.997C1104.81 762.859 1106.09 763.916 1106.23 765.358Z" fill="white"/>
<path d="M1300.77 573.23C1300.78 574.016 1300.15 574.661 1299.36 574.673C1298.58 574.684 1297.93 574.056 1297.92 573.269C1297.91 572.484 1298.54 571.837 1299.32 571.827C1300.11 571.815 1300.75 572.443 1300.77 573.23Z" fill="white"/>
<path d="M1190.3 612.149C1190.31 612.935 1189.68 613.582 1188.9 613.593C1188.11 613.604 1187.46 612.976 1187.45 612.19C1187.44 611.405 1188.07 610.758 1188.85 610.746C1189.64 610.736 1190.29 611.364 1190.3 612.149Z" fill="white"/>
<path d="M1157.41 688.867C1157.48 689.609 1156.93 690.267 1156.19 690.338C1155.45 690.408 1154.79 689.864 1154.72 689.123C1154.65 688.382 1155.2 687.724 1155.94 687.653C1156.68 687.583 1157.34 688.126 1157.41 688.867Z" fill="white"/>
<path d="M1110.62 654.533C1110.62 655.981 1109.45 657.155 1108 657.155C1106.55 657.155 1105.38 655.981 1105.38 654.533C1105.38 653.085 1106.55 651.911 1108 651.911C1109.45 651.911 1110.62 653.085 1110.62 654.533Z" fill="white"/>
<path d="M30.4094 390.778C30.4692 391.407 29.2316 392.079 27.3317 392.566C26.3729 392.81 25.6802 393.651 25.6203 394.638C25.5019 396.595 25.0753 397.937 24.4463 397.998C23.816 398.058 23.1449 396.819 22.6585 394.92C22.4128 393.961 21.5736 393.269 20.5855 393.209C18.6284 393.09 17.2812 392.664 17.2213 392.035C17.1615 391.401 18.4017 390.728 20.3003 390.244C21.2604 390 21.9556 389.16 22.0155 388.171C22.1339 386.213 22.5605 384.87 23.1895 384.81C23.8185 384.75 24.4909 385.988 24.9773 387.889C25.223 388.849 26.0635 389.543 27.0528 389.601C29.0074 389.719 30.3483 390.145 30.4094 390.778Z" fill="white"/>
<path d="M66.7457 15.2581C66.8056 15.8871 65.5666 16.5595 63.668 17.0446C62.7092 17.2904 62.0165 18.1295 61.9566 19.1176C61.8369 21.0735 61.4116 22.4168 60.7813 22.4767C60.1523 22.5365 59.48 21.2989 58.9948 19.4003C58.7491 18.4415 57.9099 17.7475 56.9218 17.6876C54.9634 17.5692 53.6175 17.1439 53.5576 16.5136C53.4978 15.8808 54.738 15.2084 56.6366 14.7246C57.5967 14.4801 58.2919 13.6396 58.3518 12.6502C58.4702 10.6918 58.8955 9.34975 59.5258 9.2899C60.1548 9.23005 60.8272 10.4678 61.3136 12.3689C61.5581 13.3277 62.3998 14.0217 63.3879 14.0815C65.3425 14.1974 66.6846 14.624 66.7457 15.2581Z" fill="white"/>
<path d="M2.83798 202.092C2.86255 202.53 1.98687 202.962 0.658509 203.248C-0.0120374 203.392 -0.514874 203.955 -0.582871 204.637C-0.717336 205.99 -1.04842 206.909 -1.48607 206.933C-1.92384 206.957 -2.35615 206.082 -2.64202 204.754C-2.78629 204.083 -3.34949 203.58 -4.03213 203.513C-5.38519 203.378 -6.3062 203.047 -6.3309 202.609C-6.35586 202.169 -5.47865 201.737 -4.15017 201.451C-3.4786 201.307 -2.97474 200.745 -2.90687 200.061C-2.77241 198.707 -2.44145 197.789 -2.00368 197.764C-1.56603 197.739 -1.13373 198.616 -0.847862 199.945C-0.703464 200.616 -0.1395 201.119 0.543907 201.186C1.89493 201.32 2.81302 201.651 2.83798 202.092Z" fill="white"/>
<path d="M298.075 12.481C298.075 13.1941 296.611 13.8168 294.426 14.1593C293.322 14.3325 292.452 15.2022 292.279 16.3062C291.936 18.4925 291.314 19.9556 290.599 19.9556C289.886 19.9556 289.264 18.4925 288.921 16.3062C288.748 15.2022 287.878 14.3325 286.774 14.1593C284.587 13.8168 283.12 13.1941 283.12 12.481C283.12 11.7628 284.585 11.1389 286.772 10.7989C287.877 10.627 288.748 9.75604 288.921 8.65205C289.264 6.46316 289.886 5.00007 290.599 5.00007C291.314 5.00007 291.936 6.46316 292.279 8.65205C292.452 9.75604 293.323 10.627 294.428 10.7989C296.612 11.1389 298.075 11.7628 298.075 12.481Z" fill="white"/>
<path d="M316.801 217.131C316.801 218.42 315.756 219.465 314.467 219.465C313.177 219.465 312.133 218.42 312.133 217.131C312.133 215.841 313.177 214.797 314.467 214.797C315.756 214.797 316.801 215.841 316.801 217.131Z" fill="white"/>
<path d="M343.618 254.559C343.69 255.842 342.709 256.941 341.425 257.014C340.142 257.086 339.043 256.105 338.97 254.821C338.898 253.538 339.879 252.437 341.163 252.365C342.446 252.293 343.545 253.275 343.618 254.559Z" fill="white"/>
<path d="M240.851 385.865C240.937 387.392 239.77 388.699 238.244 388.785C236.717 388.87 235.411 387.704 235.324 386.177C235.239 384.652 236.406 383.344 237.932 383.258C239.458 383.172 240.765 384.34 240.851 385.865Z" fill="white"/>
<path d="M343.958 86.3544C343.958 87.6431 342.912 88.6885 341.624 88.6885C340.335 88.6885 339.29 87.6431 339.29 86.3544C339.29 85.0658 340.335 84.0204 341.624 84.0204C342.912 84.0204 343.958 85.0658 343.958 86.3544Z" fill="white"/>
<path d="M4.27575 38.4052C4.2974 39.9332 3.076 41.19 1.5476 41.2116C0.019199 41.2333 -1.23734 40.0121 -1.25912 38.4841C-1.28076 36.9548 -0.0593657 35.698 1.46904 35.6764C2.99744 35.6547 4.25411 36.8772 4.27575 38.4052Z" fill="white"/>
<path d="M336.336 36.1359C336.336 36.7981 335.798 37.3354 335.135 37.3354C334.473 37.3354 333.935 36.7981 333.935 36.1359C333.935 35.4725 334.473 34.9352 335.135 34.9352C335.798 34.9352 336.336 35.4725 336.336 36.1359Z" fill="white"/>
<path d="M291.916 370.376C291.959 371.162 291.36 371.834 290.574 371.878C289.79 371.922 289.117 371.322 289.073 370.537C289.029 369.752 289.629 369.08 290.413 369.035C291.199 368.991 291.871 369.592 291.916 370.376Z" fill="white"/>
<path d="M40.7656 76.23C40.777 77.0157 40.148 77.6612 39.3624 77.6727C38.5767 77.6842 37.9298 77.0564 37.9196 76.2695C37.9082 75.4838 38.5359 74.8369 39.3216 74.8268C40.1085 74.8153 40.7541 75.4431 40.7656 76.23Z" fill="white"/>
<path d="M55.2983 206.912C55.3085 207.698 54.6807 208.345 53.8951 208.356C53.1094 208.367 52.4626 207.739 52.4511 206.953C52.4409 206.167 53.0687 205.521 53.8543 205.509C54.64 205.499 55.2869 206.127 55.2983 206.912Z" fill="white"/>
<path d="M22.4077 283.631C22.4777 284.372 21.934 285.03 21.1929 285.101C20.4518 285.171 19.7935 284.628 19.7234 283.887C19.6521 283.145 20.1959 282.487 20.9369 282.416C21.6793 282.346 22.3364 282.89 22.4077 283.631Z" fill="white"/>
</g>
</svg>
