<svg width="394" height="354" viewBox="0 0 394 354" fill="none" xmlns="http://www.w3.org/2000/svg">
<path d="M1.94058 289.617C25.468 288.816 41.0363 296.344 54.4851 303.871C67.6955 311.264 78.861 318.658 93.5167 318.16C123.092 317.154 128.138 285.324 128.138 285.324C128.138 285.324 120.941 253.911 91.3648 254.917C61.79 255.923 48.5784 288.03 1.94058 289.617Z" fill="#FF0019"/>
<mask id="mask0_489_976" style="mask-type:luminance" maskUnits="userSpaceOnUse" x="21" y="256" width="92" height="34">
<path d="M26.251 289.999C24.6211 289.61 22.9457 289.263 21.2217 288.96C36.9085 285.094 48.1611 277.636 58.4143 270.84C69.3895 263.565 78.8688 257.283 91.431 256.856C91.8754 256.841 92.316 256.833 92.754 256.833C100.142 256.833 106.608 258.979 112.067 263.234C107.485 260.512 101.846 258.713 94.9353 258.713C94.4807 258.713 94.0185 258.72 93.5537 258.735C69.2747 259.562 56.0195 281.345 26.251 289.999Z" fill="white"/>
</mask>
<g mask="url(#mask0_489_976)">
<path d="M21.2217 289.999H112.067V256.833H21.2217V289.999Z" fill="#FF99A3"/>
</g>
<path d="M41.7349 287.985C71.7924 286.963 81.7867 309.783 100.847 309.135C119.908 308.486 123.067 285.22 123.067 285.22C123.067 285.22 118.336 262.22 99.2749 262.87C80.2141 263.518 71.7924 286.963 41.7349 287.985Z" fill="#FF5917"/>
<path d="M69.5199 287.428C88.1241 286.795 94.31 300.919 106.108 300.518C117.905 300.117 119.861 285.715 119.861 285.715C119.861 285.715 116.932 271.48 105.134 271.883C93.3359 272.284 88.1241 286.795 69.5199 287.428Z" fill="#FFE600"/>
<path d="M21.2217 288.96C37.1348 291.752 48.8686 298.43 59.5595 304.512C71.0042 311.024 80.8851 316.655 93.4505 316.221C119.424 315.337 125.474 288.858 126.154 285.39C125.726 283.786 123.777 277.175 119.189 270.766C112.301 261.143 102.952 256.465 91.431 256.856C78.8688 257.283 69.3894 263.565 58.4143 270.84C48.161 277.636 36.9084 285.094 21.2217 288.96ZM92.1326 320.124C79.1508 320.124 68.6912 314.172 57.6402 307.884C43.4755 299.825 27.4081 290.684 2.00642 291.555C0.937565 291.589 0.0373073 290.754 0.00127148 289.682C0.00063481 289.659 0 289.636 0 289.613C0.00127335 288.573 0.826404 287.712 1.87463 287.676C27.2894 286.813 42.6859 276.608 56.2705 267.604C67.2601 260.321 77.6396 253.442 91.2998 252.977C104.068 252.546 114.836 257.951 122.424 268.618C128.079 276.569 129.952 284.555 130.03 284.89C130.085 285.132 130.094 285.383 130.054 285.627C130.001 285.969 128.674 294.062 123.572 302.38C116.727 313.537 106.357 319.664 93.5829 320.099C93.0953 320.116 92.6114 320.124 92.1326 320.124Z" fill="#371A45"/>
<path d="M151.406 318.585L140.459 316.504C135.507 315.563 131.471 311.978 129.952 307.171C125.431 292.857 124.91 277.578 128.45 262.991C129.639 258.092 133.421 254.242 138.298 252.966L149.078 250.145L151.406 318.585Z" fill="#0096FC"/>
<path d="M147.264 313.472L142.095 312.49C137.142 311.548 133.108 307.963 131.589 303.156C130.34 299.204 129.4 295.176 128.764 291.11C128.754 290.956 128.745 290.803 128.738 290.649C128.785 290.815 128.832 290.982 128.884 291.146C130.403 295.953 134.438 299.537 139.39 300.48L143.987 301.353C144.824 305.451 145.916 309.496 147.264 313.472Z" fill="#0E77CE"/>
<path d="M128.865 292.538C128.732 291.506 128.622 290.474 128.53 289.439C128.58 289.468 128.631 289.497 128.682 289.526C128.698 289.902 128.716 290.275 128.738 290.649C128.707 290.544 128.676 290.439 128.645 290.334L128.648 290.35C128.685 290.604 128.725 290.857 128.764 291.11C128.794 291.587 128.827 292.062 128.865 292.538ZM128.219 282.489C128.212 276.114 128.963 269.733 130.481 263.483C131.489 259.325 134.687 256.069 138.826 254.987L145.96 253.12C145.734 253.893 145.519 254.67 145.313 255.446L140.776 256.633C135.899 257.909 132.117 261.76 130.928 266.658C129.689 271.766 128.948 276.958 128.701 282.164C128.536 282.273 128.376 282.382 128.219 282.489Z" fill="#99D5FE"/>
<path d="M128.764 291.11C128.725 290.857 128.685 290.604 128.649 290.351L128.645 290.334C128.677 290.44 128.707 290.544 128.738 290.65C128.745 290.804 128.754 290.956 128.764 291.11Z" fill="#9FC9EB"/>
<path d="M121.053 224.326C126.596 227.493 152.758 242.156 152.696 258.459L179.658 245.586C179.554 244.792 179.402 243.965 179.197 243.119L179.198 243.115C176.24 230.965 162.225 214.133 122.129 222.939C121.831 223.003 121.532 223.07 121.229 223.138C120.658 223.265 120.544 224.034 121.053 224.326Z" fill="#E8502C"/>
<path d="M150.67 246.165C146.714 240.076 139.334 232.899 126.213 224.934C126.736 224.868 127.254 224.807 127.769 224.751C134.528 227.606 143.328 233.156 148.653 238.546C150.777 240.696 152.942 242.04 155.421 242.804C153.465 244.102 151.883 245.244 150.67 246.165Z" fill="#CA3B19"/>
<path d="M168.605 235.185C161.902 229.175 151.257 224.282 136.119 224.282C133.473 224.282 130.692 224.433 127.769 224.751C127.304 224.555 126.847 224.37 126.404 224.2C132.195 223.127 137.6 222.594 142.576 222.594C152.558 222.594 160.806 224.743 166.925 229.012C168.965 230.434 170.621 231.976 171.962 233.54C170.8 234.091 169.681 234.64 168.605 235.185Z" fill="#FF99A3"/>
<path d="M126.213 224.934C125.922 224.759 125.628 224.582 125.331 224.403C125.691 224.335 126.048 224.266 126.404 224.2C126.847 224.37 127.304 224.555 127.769 224.751C127.254 224.807 126.736 224.868 126.213 224.934Z" fill="#F39BA6"/>
<path d="M152.696 260.549H152.688C151.534 260.545 150.602 259.605 150.606 258.452C150.628 252.911 146.715 241.363 120.28 226.292L120.015 226.142C119.03 225.579 118.501 224.489 118.668 223.365C118.836 222.239 119.66 221.35 120.768 221.099C141.849 216.313 158.184 217.822 169.315 225.585C179.086 232.399 181.252 241.652 181.729 245.315C181.878 246.458 181.072 247.506 179.929 247.656C178.782 247.81 177.736 246.999 177.587 245.856C177.181 242.744 175.33 234.873 166.925 229.012C157.568 222.486 143.239 220.911 125.331 224.404C149.631 238.934 154.813 250.888 154.785 258.468C154.78 259.619 153.846 260.549 152.696 260.549Z" fill="#371A45"/>
<path d="M182.277 322.598C181.517 334.9 169.726 356.566 125.533 349.652C124.952 349.561 124.785 348.8 125.273 348.475C130.59 344.941 155.669 327.801 154.501 311.541L182.277 322.598Z" fill="#D25658"/>
<path d="M125.533 349.654C124.953 349.558 124.786 348.801 125.275 348.475C127.997 346.664 135.905 341.284 142.815 334.279C149.347 327.663 154.984 319.59 154.509 311.716C154.508 311.658 154.5 311.597 154.499 311.541L154.667 311.607L182.276 322.595C182.062 326.049 180.981 330.24 178.551 334.329C172.346 344.811 157.326 354.624 125.533 349.654Z" fill="#E8502C"/>
<path d="M162.234 337.111C157.149 337.111 151.467 336.433 145.138 334.881C148.672 331.184 151.84 327.119 153.951 322.891C158.086 325.546 165.541 329.804 176.316 333.969C176.018 334.44 175.698 334.912 175.352 335.385C171.509 336.477 167.151 337.111 162.234 337.111Z" fill="#CA3B19"/>
<path d="M141.606 353.088C136.532 353.088 131.065 352.631 125.21 351.714C124.087 351.54 123.205 350.707 122.962 349.597C122.719 348.486 123.173 347.363 124.118 346.736C131.017 342.149 153.451 326.066 152.417 311.692C152.334 310.541 153.2 309.541 154.351 309.458C155.514 309.381 156.502 310.241 156.585 311.391C157.634 325.994 139.923 340.746 129.512 348.102C147.376 350.329 161.454 347.744 170.383 340.57C178.868 333.75 180.036 324.991 180.192 322.469C180.263 321.317 181.265 320.433 182.406 320.512C183.557 320.583 184.433 321.574 184.361 322.726C184.128 326.512 182.553 336.149 172.999 343.826C165.329 349.991 154.806 353.088 141.606 353.088Z" fill="#371A45"/>
<path d="M392.615 276.121C392.615 276.121 361.585 333.199 269.967 342.646C191.934 350.687 151.404 318.582 151.404 318.582C144.167 300.931 142.25 281.646 145.734 263.07C146.553 258.705 147.671 254.396 149.076 250.146C149.076 250.146 150.84 248.537 154.392 246.047C158.298 243.305 164.361 239.488 172.607 235.55C173.751 235.002 174.936 234.453 176.169 233.905C184.028 230.396 193.61 226.887 204.937 224.066C217.945 220.823 233.247 218.468 250.876 218.019C255.66 217.894 260.615 217.915 265.739 218.086C272.882 218.332 279.687 218.896 286.152 219.721C362.974 229.477 392.615 276.121 392.615 276.121Z" fill="white"/>
<path d="M248.484 337.461C188.024 337.461 156.742 312.691 156.742 312.691C154.675 307.646 153.051 302.466 151.876 297.205C152.323 297.224 152.77 297.234 153.218 297.234C153.55 297.234 153.886 297.229 154.219 297.218C161.835 296.962 168.523 293.696 173.307 290.493C178.038 301.1 186.73 309.712 197.752 314.31C204.665 317.193 215.449 319.678 227.601 321.355C221.481 315.418 217.569 307.192 217.256 298.001C217.206 296.559 217.247 295.136 217.373 293.734C219.305 298.988 222.454 303.754 226.662 307.686C233.436 314.013 242.177 317.455 251.399 317.455C251.82 317.455 252.242 317.449 252.664 317.433C262.35 317.105 271.327 313.024 277.944 305.941C281.293 302.357 283.834 298.22 285.485 293.753C285.542 294.39 285.581 295.031 285.603 295.677C285.979 306.68 281.107 316.649 273.243 323.177C279.749 322.696 285.744 321.82 290.81 320.478C309.176 315.615 318.388 309.73 322.926 295.788C327.897 280.504 328.026 265.202 327.752 253.957C330.943 276.845 330.723 299.958 327.081 322.981C312.045 329.114 294.013 333.984 272.594 336.196C264.097 337.072 256.066 337.461 248.484 337.461ZM208.544 291.952C206.891 291.952 205.197 291.793 203.486 291.468C198.329 290.489 195.288 287.954 193.561 284.87H193.563C194.268 285.158 194.963 285.502 195.688 285.704L196.766 286.049L197.856 286.304C200.083 286.812 202.331 287.045 204.596 287.045C205.251 287.045 205.908 287.026 206.565 286.988C208.025 286.87 209.486 286.682 210.924 286.351C212.356 286.01 213.777 285.588 215.146 285.013C215.211 284.985 215.277 284.957 215.342 284.929C215.542 286.874 215.895 288.786 216.394 290.647C213.957 291.507 211.307 291.952 208.544 291.952ZM292.801 291.951C290.56 291.951 288.392 291.658 286.35 291.089C286.866 289.267 287.239 287.399 287.463 285.499C288.432 285.838 289.422 286.114 290.416 286.351C291.854 286.681 293.313 286.87 294.774 286.988C295.432 287.026 296.089 287.045 296.743 287.045C299.009 287.045 301.256 286.813 303.483 286.304L304.572 286.049L305.651 285.705C306.375 285.502 307.072 285.158 307.777 284.87C307.778 284.87 307.781 284.869 307.782 284.869C306.054 287.954 303.013 290.489 297.854 291.468C296.144 291.792 294.453 291.951 292.801 291.951ZM169.599 276.614C165.299 274.571 160.058 272.912 154.383 272.912C154.052 272.912 153.723 272.917 153.39 272.928C153.038 272.941 152.686 272.959 152.335 272.984C151.42 273.048 150.507 273.154 149.6 273.295C149.841 265.248 151.09 257.214 153.358 249.386C156.856 246.759 163.534 242.215 173.365 237.501C169.414 250.223 168.167 263.544 169.599 276.614ZM274.066 243.61C270.167 236.532 254.286 234.855 254.286 234.855H247.054C247.054 234.855 231.175 236.532 227.273 243.608C227.257 243.555 227.239 243.5 227.221 243.447C226.786 242.127 226.372 240.941 226.188 239.828C225.996 238.712 226.005 237.547 226.108 236.308L226.225 235.367L226.283 234.897L226.362 234.543C226.449 234.067 226.643 233.614 226.87 233.166C227.803 231.363 229.826 229.873 232.023 228.734C234.249 227.59 236.722 226.745 239.243 226.068C240.642 225.696 242.085 225.371 243.526 225.103H257.815C259.256 225.371 260.699 225.696 262.098 226.068C264.619 226.745 267.092 227.59 269.318 228.734C271.515 229.873 273.538 231.363 274.471 233.166C274.698 233.613 274.892 234.066 274.978 234.543L275.058 234.897L275.116 235.367L275.231 236.308C275.336 237.546 275.345 238.712 275.153 239.828C274.969 240.939 274.555 242.127 274.12 243.445C274.102 243.5 274.084 243.555 274.066 243.61Z" fill="#CDC6D0"/>
<path d="M392.62 276.126C392.62 276.126 375.299 307.964 328.352 328.012C330.363 316.733 331.553 305.349 331.919 293.959C332.425 278.34 331.39 262.699 328.822 247.263C327.788 241.044 326.503 234.855 324.972 228.714C325.146 228.771 325.312 228.833 325.479 228.892C328.357 229.904 331.13 230.97 333.803 232.072C365.763 245.242 383.251 264.057 389.706 272.162C390.913 273.682 391.738 274.831 392.186 275.489C392.479 275.902 392.62 276.126 392.62 276.126Z" fill="#E8502C"/>
<path d="M392.62 276.126C392.615 276.118 392.532 275.988 392.369 275.751C392.368 275.749 392.368 275.748 392.367 275.747C392.532 275.986 392.615 276.118 392.62 276.126Z" fill="#E9D3FF"/>
<path d="M392.369 275.75C392.317 275.674 392.256 275.587 392.186 275.489C392.255 275.585 392.315 275.67 392.367 275.746C392.368 275.747 392.368 275.749 392.369 275.75Z" fill="white"/>
<path d="M390.605 273.317C390.333 272.96 390.034 272.576 389.706 272.162C390.034 272.574 390.333 272.96 390.605 273.317Z" fill="#E9D3FF"/>
<path d="M390.643 279.299C390.443 279.03 390.224 278.74 389.985 278.428C390.811 277.366 391.544 276.381 392.186 275.489C392.256 275.587 392.317 275.673 392.37 275.75C392.533 275.988 392.615 276.118 392.62 276.126C392.62 276.126 392.62 276.126 392.619 276.127C392.599 276.164 391.966 277.319 390.643 279.299ZM386.963 274.732C383.802 271.07 379.142 266.214 372.822 260.945C372.021 261.193 371.159 261.315 370.262 261.315C367.018 261.315 363.307 259.721 360.303 256.717C357.927 254.341 356.439 251.523 355.914 248.844C349.375 244.83 341.88 240.908 333.341 237.39C332.122 236.887 330.882 236.393 329.621 235.909C329.055 234.589 328.519 233.431 328.022 232.456C327.916 232 327.811 231.544 327.702 231.088C327.63 230.588 327.542 230.09 327.439 229.595C329.621 230.394 331.742 231.222 333.803 232.071C342.321 235.581 349.8 239.493 356.326 243.495C364.486 248.498 371.144 253.641 376.422 258.324C382.26 263.507 386.417 268.124 389.056 271.357C389.284 271.636 389.501 271.904 389.706 272.162C388.828 273.008 387.914 273.865 386.963 274.732Z" fill="#FF99A3"/>
<path d="M331.548 321.84C331.552 321.669 331.557 321.5 331.561 321.329C335.816 292.666 334.861 263.882 328.717 235.564C329.02 235.679 329.321 235.793 329.621 235.909C333.794 245.635 339.595 264.204 342.863 283.794C343.926 290.167 350.252 294.851 356.428 294.851C358.461 294.851 360.477 294.343 362.284 293.223C372.038 287.176 380.371 280.737 386.963 274.732C387.836 275.745 388.595 276.667 389.243 277.48C389.51 277.815 389.757 278.131 389.984 278.428C381.549 289.271 363.342 308.261 331.548 321.84Z" fill="#CA3B19"/>
<path d="M389.984 278.428C389.757 278.131 389.51 277.815 389.243 277.48C388.595 276.667 387.836 275.745 386.963 274.732C387.914 273.865 388.828 273.008 389.706 272.162C390.034 272.575 390.333 272.96 390.605 273.317C391.333 274.269 391.86 275.009 392.186 275.489C391.544 276.381 390.811 277.366 389.984 278.428ZM329.621 235.909C329.321 235.793 329.02 235.679 328.717 235.564C328.493 234.528 328.26 233.491 328.022 232.456C328.519 233.431 329.055 234.589 329.621 235.909Z" fill="#CD798B"/>
<path d="M327.915 231.998C335.016 262.517 336.075 293.612 331.063 324.537C362.208 310.405 379.344 291.331 386.907 280.99C388.97 278.169 388.84 274.33 386.59 271.656C378.343 261.851 359.95 243.981 327.915 231.998ZM328.353 330.102C327.888 330.102 327.429 329.947 327.053 329.647C326.452 329.169 326.162 328.402 326.297 327.647C332.163 294.757 331.037 261.642 322.949 229.219C322.763 228.476 323 227.689 323.566 227.172C324.134 226.653 324.94 226.489 325.662 226.741C360.887 239.025 380.958 258.469 389.786 268.967C393.279 273.118 393.481 279.076 390.279 283.456C382.183 294.527 363.478 315.286 329.173 329.933C328.909 330.047 328.631 330.102 328.353 330.102Z" fill="#371A45"/>
<path d="M153.121 317.261C155.223 318.806 165.135 325.692 182.332 331.734C200.243 338.03 229.947 344.671 269.755 340.565C290.252 338.451 309.334 333.733 326.491 326.539C332.073 294.387 330.972 262.025 323.22 230.317C305.615 224.305 286.256 220.895 265.66 220.18C225.674 218.787 196.481 227.43 179.04 234.925C162.293 242.121 152.871 249.664 150.879 251.346C147.385 262.068 145.807 273.217 146.191 284.498C146.575 295.777 148.906 306.797 153.121 317.261ZM245.52 346.01C217.042 346.01 195.157 340.693 180.73 335.6C160.743 328.544 150.531 320.557 150.106 320.22C149.826 319.998 149.607 319.706 149.47 319.374C144.931 308.292 142.424 296.606 142.015 284.641C141.609 272.672 143.318 260.844 147.093 249.486C147.206 249.146 147.405 248.84 147.67 248.598C148.071 248.234 157.718 239.573 177.178 231.178C195.044 223.47 224.924 214.582 265.806 216.003C287.238 216.749 307.377 220.362 325.664 226.741C326.328 226.974 326.831 227.526 327.002 228.208C335.232 261.197 336.379 294.892 330.413 328.356C330.299 329.052 329.835 329.657 329.173 329.941C311.362 337.548 291.515 342.521 270.184 344.721C261.488 345.617 253.26 346.01 245.52 346.01Z" fill="#371A45"/>
<path d="M151.408 320.674C151.279 320.674 151.147 320.662 151.016 320.638L140.069 318.556C134.353 317.469 129.714 313.348 127.961 307.8C123.323 293.122 122.791 277.456 126.42 262.498C127.792 256.844 132.14 252.417 137.77 250.945L148.55 248.125C149.666 247.829 150.807 248.5 151.099 249.617C151.391 250.732 150.722 251.875 149.607 252.166L138.826 254.987C134.687 256.069 131.489 259.325 130.481 263.482C127.03 277.701 127.537 292.59 131.945 306.542C133.234 310.621 136.646 313.652 140.85 314.452L151.796 316.533C152.929 316.748 153.674 317.842 153.457 318.975C153.267 319.977 152.391 320.674 151.408 320.674Z" fill="#371A45"/>
<path d="M154.219 297.217C138.885 297.734 123.372 286.11 123.372 286.11C123.372 286.11 123.428 286.06 123.532 285.977C125.158 284.617 138.989 273.425 153.388 272.928C167.208 272.456 178.65 282.071 180.66 283.865C180.865 284.05 180.972 284.151 180.972 284.151C180.972 284.151 169.45 296.707 154.219 297.217Z" fill="#E8502C"/>
<path d="M123.477 286.022C123.494 286.008 123.512 285.993 123.531 285.978C123.653 285.876 123.844 285.718 124.099 285.513V285.515C123.845 285.718 123.654 285.876 123.532 285.978C123.512 285.994 123.494 286.008 123.477 286.022Z" fill="#FF99A3"/>
<path d="M180.97 284.15C180.959 284.14 180.853 284.04 180.66 283.865C179.531 282.858 175.429 279.383 169.599 276.615V276.613C175.427 279.383 179.533 282.858 180.661 283.865C180.866 284.05 180.97 284.15 180.97 284.15Z" fill="white"/>
<path d="M169.599 276.615C165.298 274.571 160.056 272.912 154.378 272.912C154.051 272.912 153.72 272.917 153.388 272.928C153.037 272.941 152.686 272.959 152.335 272.984C152.686 272.959 153.038 272.941 153.39 272.928C153.723 272.917 154.052 272.912 154.383 272.912C160.058 272.912 165.299 274.571 169.599 276.613V276.615Z" fill="#EBE8EC"/>
<path d="M124.1 285.514V285.513C124.676 285.052 125.577 284.353 126.747 283.515C125.576 284.353 124.676 285.053 124.1 285.514Z" fill="#AFA3B5"/>
<path d="M123.532 285.978C123.654 285.876 123.845 285.718 124.1 285.514C124.676 285.053 125.576 284.353 126.747 283.515C131.794 279.902 141.838 273.722 152.335 272.984C152.686 272.959 153.037 272.941 153.388 272.928C153.719 272.917 154.051 272.912 154.378 272.912C160.056 272.912 165.298 274.571 169.599 276.615C175.429 279.383 179.532 282.858 180.66 283.865L177.348 283.987C171.716 280.559 163.629 276.934 154.584 276.934C154.202 276.934 153.819 276.941 153.434 276.953C143.75 277.288 134.287 281.792 127.669 285.825L123.532 285.978Z" fill="#FF99A3"/>
<path d="M153.218 297.234C151.259 297.234 149.304 297.044 147.383 296.714C145.899 296.46 144.433 296.121 143.004 295.721C137.267 294.114 132.116 291.526 128.53 289.439C126.519 288.268 125.003 287.257 124.15 286.665C123.643 286.312 123.372 286.11 123.372 286.11C123.372 286.11 123.409 286.078 123.477 286.022C123.41 286.078 123.374 286.11 123.374 286.11C123.374 286.11 124.033 286.605 125.212 287.382C125.978 286.878 126.8 286.356 127.669 285.825L177.348 283.987C178.168 284.487 178.937 284.983 179.649 285.462C180.49 284.671 180.95 284.172 180.97 284.15C180.97 284.152 180.972 284.152 180.972 284.152C180.972 284.152 169.45 296.707 154.219 297.217C153.886 297.229 153.55 297.234 153.218 297.234Z" fill="#CA3B19"/>
<path d="M125.212 287.382C124.033 286.605 123.374 286.11 123.374 286.11C123.374 286.11 123.41 286.078 123.477 286.022C123.494 286.008 123.512 285.994 123.532 285.978L127.669 285.825C126.8 286.356 125.978 286.878 125.212 287.382ZM179.649 285.462C178.937 284.983 178.168 284.487 177.348 283.987L180.66 283.865C180.853 284.04 180.959 284.14 180.97 284.15C180.95 284.172 180.49 284.671 179.649 285.462Z" fill="#CD798B"/>
<path d="M126.908 285.99C131.656 289.044 143.063 295.519 154.147 295.13C165.229 294.757 174.352 287.485 177.871 284.259C174.133 281.28 164.5 274.638 153.463 275.018C142.388 275.399 131.437 282.62 126.908 285.99ZM153.21 299.325C137.702 299.325 122.762 288.263 122.119 287.781C121.612 287.402 121.305 286.813 121.283 286.181C121.262 285.548 121.528 284.94 122.008 284.527C122.631 283.991 137.435 271.388 153.32 270.843C169.247 270.322 181.878 282.132 182.409 282.638C183.234 283.422 183.279 284.723 182.509 285.562C182.013 286.102 170.214 298.77 154.287 299.307C153.928 299.318 153.568 299.325 153.21 299.325Z" fill="#371A45"/>
<path d="M252.594 315.346C233.72 315.988 217.9 301.208 217.258 282.334C216.617 263.461 231.395 247.641 250.269 246.999C269.142 246.357 284.962 261.137 285.605 280.01C286.247 298.884 271.467 314.704 252.594 315.346Z" fill="#E8502C"/>
<path d="M251.803 305.689C245.789 305.689 240.088 303.444 235.67 299.317C231.051 295.002 228.389 289.147 228.175 282.83C227.732 269.79 237.98 258.82 251.02 258.376C251.296 258.366 251.574 258.361 251.848 258.361C260.999 258.361 269.049 263.647 272.965 271.405C273.16 271.915 273.37 272.419 273.595 272.917C273.72 273.193 273.852 273.468 273.989 273.739C274.866 276.077 275.384 278.592 275.473 281.22C275.917 294.261 265.669 305.231 252.628 305.675C252.353 305.684 252.078 305.689 251.803 305.689ZM231.614 288.816C234.829 296.875 242.704 302.508 251.81 302.508C252.059 302.508 252.311 302.504 252.562 302.496C260.535 302.223 267.361 297.692 270.928 291.164C270.928 291.163 270.929 291.163 270.929 291.161C270.934 291.153 270.939 291.145 270.944 291.135V291.133C270.949 291.125 270.954 291.116 270.959 291.107C270.959 291.105 270.961 291.104 270.961 291.103C270.965 291.095 270.97 291.086 270.973 291.079C270.975 291.076 270.976 291.074 270.977 291.072C270.981 291.065 270.985 291.058 270.989 291.052C270.991 291.048 270.993 291.044 270.995 291.04C270.998 291.034 271.001 291.029 271.004 291.023C271.007 291.019 271.009 291.015 271.01 291.011C271.013 291.006 271.017 291 271.019 290.995C271.022 290.99 271.024 290.986 271.027 290.981C271.029 290.976 271.032 290.972 271.035 290.967C271.037 290.962 271.04 290.956 271.042 290.951C271.045 290.948 271.047 290.942 271.049 290.94C271.052 290.932 271.055 290.927 271.059 290.919C271.06 290.917 271.063 290.914 271.064 290.912C271.066 290.905 271.07 290.898 271.074 290.891C271.075 290.889 271.078 290.885 271.079 290.883C271.083 290.875 271.086 290.869 271.089 290.862C271.091 290.86 271.092 290.857 271.093 290.855C271.097 290.848 271.102 290.839 271.106 290.832C271.106 290.83 271.107 290.829 271.107 290.828C271.112 290.819 271.117 290.81 271.121 290.801C271.511 290.055 271.858 289.283 272.16 288.491C272.163 288.724 272.163 288.957 272.161 289.189C273.08 286.782 273.571 284.168 273.567 281.448C273.581 280.973 273.581 280.495 273.565 280.013C273.165 268.258 263.51 258.999 251.838 258.999C251.588 258.999 251.336 259.003 251.085 259.012C240.817 259.361 232.452 266.774 230.501 276.424C230.501 276.425 230.5 276.426 230.5 276.429C230.5 276.429 230.5 276.43 230.5 276.431C230.225 277.785 230.079 279.184 230.071 280.612C230.071 280.67 230.071 280.728 230.071 280.786C230.067 280.892 230.065 280.999 230.063 281.105C230.067 281.096 230.07 281.087 230.073 281.078C230.076 281.215 230.079 281.353 230.084 281.492C230.171 284.078 230.708 286.543 231.614 288.816Z" fill="#FF99A3"/>
<path d="M230.106 258.483C230.077 258.073 230.042 257.666 230.002 257.262C235.602 252.227 242.724 249.346 250.34 249.087C250.714 249.073 251.087 249.068 251.459 249.068C258.789 249.068 265.776 251.526 271.465 256.083C271.415 256.517 271.368 256.958 271.325 257.405C265.711 253.379 258.84 251.019 251.452 251.019C251.059 251.019 250.665 251.027 250.269 251.039C242.625 251.299 235.654 254.05 230.106 258.483Z" fill="#FF99A3"/>
<path d="M251.387 313.278C243.225 313.278 235.503 310.227 229.514 304.632C223.37 298.892 219.778 291.142 219.367 282.764C220.076 282.285 220.766 281.773 221.426 281.225C225.354 295.877 238.733 306.533 254.433 306.533C254.826 306.533 255.218 306.526 255.614 306.513C265.828 306.164 274.842 301.367 280.858 294.049C279.417 297.337 277.414 300.389 274.891 303.089C269.037 309.355 261.092 312.967 252.523 313.258C252.143 313.272 251.765 313.278 251.387 313.278Z" fill="#CA3B19"/>
<path d="M251.459 249.068C251.087 249.068 250.714 249.073 250.34 249.087C241.77 249.378 233.826 252.99 227.971 259.256C222.117 265.523 219.054 273.692 219.345 282.263C219.637 290.834 223.248 298.779 229.514 304.632C235.781 310.486 243.943 313.555 252.523 313.258C261.092 312.968 269.037 309.355 274.891 303.089C280.745 296.823 283.809 288.652 283.517 280.081C283.226 271.511 279.614 263.567 273.348 257.713C267.355 252.114 259.62 249.068 251.459 249.068ZM251.399 317.455C242.177 317.455 233.436 314.013 226.662 307.686C219.581 301.069 215.5 292.092 215.17 282.406C214.842 272.719 218.303 263.485 224.919 256.404C231.535 249.322 240.512 245.241 250.199 244.911C259.875 244.587 269.118 248.043 276.2 254.66C283.282 261.276 287.363 270.253 287.692 279.939C288.022 289.626 284.56 298.86 277.944 305.941C271.327 313.024 262.35 317.105 252.664 317.433C252.242 317.448 251.82 317.455 251.399 317.455Z" fill="#371A45"/>
<path d="M252.563 302.493C240.557 302.9 230.492 293.498 230.084 281.491C229.675 269.484 239.077 259.419 251.085 259.012C263.091 258.603 273.156 268.005 273.565 280.013C273.973 292.019 264.571 302.084 252.563 302.493Z" fill="#0096FC"/>
<path d="M251.809 302.508C242.704 302.508 234.829 296.875 231.614 288.816C234.829 296.873 242.706 302.506 251.811 302.506C252.06 302.506 252.312 302.502 252.563 302.493C260.537 302.222 267.362 297.692 270.928 291.164C267.361 297.692 260.534 302.223 252.562 302.495C252.311 302.504 252.059 302.508 251.809 302.508ZM270.929 291.161C270.934 291.152 270.939 291.143 270.944 291.134C270.939 291.145 270.934 291.152 270.929 291.161ZM270.961 291.103C270.966 291.095 270.97 291.087 270.973 291.078C270.97 291.086 270.964 291.095 270.961 291.103ZM270.995 291.04C270.998 291.034 271 291.029 271.004 291.022C271.001 291.029 270.998 291.034 270.995 291.04ZM271.074 290.891C271.075 290.889 271.077 290.885 271.079 290.882C271.078 290.885 271.075 290.889 271.074 290.891ZM230.071 280.612C230.079 279.184 230.225 277.785 230.5 276.431C230.226 277.785 230.08 279.183 230.071 280.612ZM230.5 276.429C230.5 276.426 230.501 276.425 230.501 276.423C230.5 276.425 230.5 276.426 230.5 276.429Z" fill="#FFB8BF"/>
<path d="M251.811 302.505C242.706 302.505 234.829 296.873 231.614 288.816C230.708 286.543 230.173 284.078 230.085 281.491C230.08 281.353 230.076 281.215 230.073 281.076C230.472 280.027 230.949 279.016 231.498 278.05C233.393 288.203 242.303 295.787 252.865 295.787C253.116 295.787 253.366 295.782 253.618 295.775C261.454 295.51 268.178 291.133 271.792 284.788C271.991 285.854 272.113 286.948 272.15 288.064C272.155 288.207 272.159 288.348 272.16 288.49C271.858 289.283 271.511 290.053 271.121 290.801C271.117 290.81 271.112 290.819 271.107 290.828C271.107 290.829 271.106 290.83 271.106 290.831C271.102 290.839 271.097 290.847 271.093 290.854C271.092 290.857 271.091 290.859 271.089 290.862C271.085 290.868 271.083 290.875 271.079 290.882C271.077 290.885 271.075 290.889 271.074 290.891C271.07 290.898 271.066 290.904 271.064 290.912C271.063 290.914 271.06 290.917 271.059 290.919C271.055 290.927 271.052 290.932 271.049 290.94C271.047 290.942 271.045 290.947 271.042 290.951C271.04 290.956 271.037 290.961 271.035 290.966C271.032 290.971 271.029 290.975 271.027 290.98C271.024 290.985 271.022 290.989 271.019 290.994C271.017 291 271.013 291.006 271.01 291.011C271.008 291.015 271.007 291.019 271.004 291.022C271 291.029 270.998 291.034 270.995 291.04C270.993 291.044 270.991 291.048 270.989 291.052C270.985 291.058 270.981 291.064 270.977 291.072C270.976 291.075 270.976 291.076 270.973 291.078C270.97 291.087 270.966 291.095 270.961 291.103C270.961 291.104 270.959 291.105 270.959 291.106C270.954 291.115 270.949 291.124 270.944 291.133V291.134C270.939 291.143 270.934 291.152 270.929 291.161C270.929 291.162 270.928 291.162 270.928 291.164C267.362 297.692 260.537 302.222 252.563 302.493C252.312 302.502 252.06 302.505 251.811 302.505ZM273.567 281.409C273.566 281.209 273.563 281.008 273.557 280.806C273.563 280.787 273.57 280.767 273.576 280.748C273.576 280.968 273.574 281.19 273.567 281.409ZM230.071 280.782C230.071 280.725 230.071 280.669 230.071 280.612C230.08 279.183 230.226 277.785 230.5 276.431C230.5 276.43 230.5 276.43 230.5 276.429C230.5 276.426 230.5 276.425 230.501 276.423C230.666 275.611 230.877 274.816 231.13 274.04C231.129 274.263 231.133 274.484 231.138 274.711C230.508 276.634 230.138 278.672 230.071 280.782Z" fill="#4DB6FD"/>
<path d="M272.161 289.189C272.163 288.957 272.163 288.724 272.16 288.491C272.999 286.288 273.491 283.917 273.567 281.448C273.571 284.168 273.079 286.782 272.161 289.189ZM230.063 281.104C230.064 280.999 230.067 280.892 230.071 280.786C230.071 280.883 230.072 280.981 230.073 281.078C230.07 281.087 230.067 281.095 230.063 281.104Z" fill="#B96D82"/>
<path d="M272.16 288.491V288.49C273.004 286.275 273.495 283.892 273.567 281.409C273.567 281.423 273.567 281.435 273.567 281.448C273.491 283.917 272.999 286.288 272.16 288.491ZM271.792 284.788C269.9 274.632 260.989 267.048 250.425 267.048C250.175 267.048 249.925 267.052 249.673 267.061C241.838 267.324 235.11 271.703 231.498 278.05C231.3 276.983 231.177 275.887 231.14 274.771C231.139 274.75 231.139 274.73 231.138 274.711C233.905 266.281 241.697 260.07 251.079 259.752C251.329 259.743 251.58 259.739 251.83 259.739C263.496 259.739 273.155 268.991 273.555 280.748C273.556 280.767 273.556 280.787 273.557 280.806C273.101 282.199 272.508 283.533 271.792 284.788ZM230.073 281.078C230.072 280.981 230.071 280.883 230.071 280.786C230.071 280.785 230.071 280.784 230.071 280.782C230.071 280.88 230.072 280.978 230.073 281.076V281.078Z" fill="#136BBC"/>
<path d="M272.16 288.49C272.159 288.349 272.155 288.207 272.15 288.065C272.113 286.948 271.991 285.854 271.792 284.788C272.508 283.533 273.101 282.2 273.557 280.807C273.563 281.008 273.566 281.209 273.567 281.409C273.495 283.892 273.004 286.276 272.16 288.49ZM230.073 281.077C230.072 280.978 230.071 280.88 230.071 280.782C230.138 278.672 230.508 276.634 231.138 274.711C231.139 274.73 231.139 274.751 231.14 274.771C231.177 275.888 231.3 276.983 231.498 278.05C230.949 279.016 230.472 280.027 230.073 281.077Z" fill="#4580BD"/>
<path d="M251.841 260.908C251.612 260.908 251.382 260.913 251.15 260.92C245.853 261.1 240.943 263.332 237.324 267.206C233.706 271.079 231.812 276.129 231.992 281.426C232.173 286.724 234.404 291.634 238.278 295.252C242.151 298.87 247.203 300.758 252.498 300.584C257.797 300.403 262.707 298.171 266.324 294.299C269.942 290.425 271.835 285.375 271.656 280.077C271.475 274.78 269.243 269.87 265.371 266.252C261.666 262.791 256.885 260.908 251.841 260.908ZM251.804 304.416C245.789 304.416 240.087 302.171 235.671 298.044C231.051 293.728 228.389 287.873 228.175 281.556C227.96 275.239 230.217 269.216 234.533 264.598C238.848 259.979 244.703 257.317 251.02 257.103C257.315 256.892 263.359 259.145 267.979 263.461C272.597 267.775 275.258 273.631 275.473 279.948C275.689 286.264 273.43 292.287 269.116 296.905C264.802 301.525 258.945 304.186 252.628 304.402C252.353 304.41 252.078 304.416 251.804 304.416Z" fill="#371A45"/>
<path d="M284.71 221.283H217.651C206.849 221.283 198.091 212.526 198.091 201.723V143.779C198.091 132.976 206.849 124.219 217.651 124.219H284.71C295.513 124.219 304.27 132.976 304.27 143.779V201.723C304.27 212.526 295.513 221.283 284.71 221.283Z" fill="white"/>
<path d="M284.71 120.399H217.651C204.759 120.399 194.271 130.887 194.271 143.779V201.723C194.271 214.614 204.759 225.103 217.651 225.103H284.71C297.602 225.103 308.09 214.614 308.09 201.723V143.779C308.09 130.887 297.602 120.399 284.71 120.399ZM284.71 124.219C295.513 124.219 304.27 132.976 304.27 143.779V201.723C304.27 212.526 295.513 221.282 284.71 221.282H217.651C206.848 221.282 198.091 212.526 198.091 201.723V143.779C198.091 132.976 206.848 124.219 217.651 124.219H284.71Z" fill="#371A45"/>
<path d="M222.228 115.63L220.792 120.914L214.854 142.789L210.682 158.164C210.682 158.164 208.984 163.982 203.888 169.078C200.305 172.649 195.046 175.877 187.532 176.478C157.207 178.9 147.076 143.224 147.076 143.224L170.723 125.097C181.067 137.907 193.193 136.419 203.083 131.322C214.029 125.687 222.228 115.63 222.228 115.63Z" fill="white"/>
<path d="M184.577 174.507C174.022 174.506 164.977 169.504 157.687 159.618C153.367 153.759 150.848 147.673 149.749 144.632C150.754 144.797 151.809 144.89 152.916 144.89C153.279 144.89 153.647 144.88 154.02 144.859C156.55 144.718 162.101 143.776 167.046 140.72C154.481 154.127 168.656 163.145 185.316 163.145C186.541 163.145 187.78 163.095 189.023 162.996C196.374 162.409 201.559 159.321 205.131 155.844C205.001 156.2 204.871 156.558 204.753 156.917L204.154 158.809C203.395 161.342 202.755 163.907 202.21 166.493C202.09 167.05 201.974 167.608 201.861 168.168C198.591 171.218 193.915 173.869 187.364 174.394C186.423 174.469 185.495 174.507 184.577 174.507Z" fill="#CDC6D0"/>
<path d="M149.52 143.984C150.47 146.733 153.034 153.307 157.687 159.618C165.611 170.364 175.607 175.34 187.364 174.394C203.89 173.072 208.488 158.207 208.676 157.575L218.052 123.039C211.716 128.987 200.928 137.134 189.376 137.134C189.356 137.134 189.338 137.134 189.319 137.134C182.216 137.118 175.866 134.034 170.418 127.961L149.52 143.984ZM184.654 178.68C172.755 178.68 162.294 172.957 154.249 161.994C147.778 153.176 145.177 144.173 145.068 143.794L144.681 142.429L171.069 122.199L172.349 123.783C177.249 129.853 182.958 132.939 189.319 132.956C189.336 132.956 189.357 132.958 189.376 132.958C205.195 132.958 220.457 114.495 220.61 114.309L226.812 106.716L212.696 158.712C212.632 158.931 207.142 177.003 187.698 178.558C186.674 178.64 185.658 178.68 184.654 178.68Z" fill="#371A45"/>
<path d="M176.392 121.976C177.484 140.831 159.262 144.567 154.023 144.858C143.095 145.463 136.696 136.932 136.696 136.932L141.616 123.596L143.486 116.619L147.448 113.987C148.981 106.705 154.132 97.4134 159.079 98.6409C159.079 98.6409 175.452 105.725 176.392 121.976Z" fill="white"/>
<path d="M154.299 135.218C154.584 134.924 154.84 134.618 155.064 134.302C156.546 132.212 156.438 130.377 156.085 129.204C155.898 128.581 155.605 128.017 155.249 127.51C155.31 127.344 155.349 127.169 155.367 126.99L155.705 123.42C157.131 122.63 158.566 121.252 159.865 119.132C160.473 121.521 161.971 124.486 165.59 126.289C164.604 129.423 162.04 132.051 158.693 133.507C157.163 134.173 155.698 134.741 154.299 135.218Z" fill="#B9AFBE"/>
<path d="M155.279 105.715L153.287 126.792L138.382 118.595C138.382 118.595 134.019 116.714 128.809 113.923C120.099 109.262 109.011 102.059 111.975 96.8764C117.002 88.0788 141.703 106.201 141.703 106.201C141.703 106.201 125.614 79.3895 136.427 75.3644C142.374 73.1475 148.652 86.9659 152.249 96.6905C154.128 101.757 155.279 105.715 155.279 105.715Z" fill="white"/>
<path d="M134.184 114.354C133.622 114.079 133.052 113.794 132.478 113.502C137.138 112.844 142.082 111.628 144.77 109.374C147.429 107.146 148.053 101.656 150.629 98.2856C151.197 99.8404 151.723 101.366 152.195 102.815C150.176 105.67 148.527 109.534 147.657 113.064C146.304 112.849 144.867 112.747 143.432 112.747C139.929 112.747 136.434 113.349 134.184 114.354Z" fill="#B9AFBE"/>
<path d="M116.922 96.5464C116.452 96.5464 116.013 96.5871 115.609 96.6737C114.733 96.8596 114.171 97.2429 113.787 97.9152C113.613 98.2208 113.446 98.6754 113.715 99.4802C115.473 104.751 130.286 112.826 139.21 116.679C139.271 116.706 139.331 116.735 139.389 116.767L151.506 123.431L153.162 105.918C150.273 96.1376 143.93 80.096 138.782 77.5085C137.977 77.1061 137.489 77.1966 137.154 77.3214C136.147 77.697 135.507 78.3591 135.14 79.4045C133.001 85.509 140.446 100.042 143.495 105.127C144.006 105.979 143.846 107.074 143.111 107.744C142.376 108.415 141.27 108.474 140.468 107.886C135.938 104.566 123.504 96.5464 116.922 96.5464ZM153.287 128.882C152.94 128.882 152.594 128.795 152.281 128.623L137.463 120.475C134.521 119.201 112.644 109.466 109.752 100.803C109.166 99.0485 109.308 97.3333 110.159 95.8422C111.13 94.1436 112.715 93.0179 114.741 92.5863C120.493 91.3651 129.609 95.9938 135.954 99.866C132.765 93.228 129.182 83.7772 131.198 78.0242C131.973 75.8099 133.529 74.2131 135.697 73.4058C137.286 72.815 139.001 72.9436 140.657 73.7763C149.204 78.0714 156.483 102.375 157.285 105.133C157.359 105.386 157.384 105.65 157.359 105.912L155.367 126.99C155.3 127.69 154.886 128.31 154.264 128.639C153.959 128.8 153.623 128.882 153.287 128.882Z" fill="#371A45"/>
<path d="M133.999 135.534C138.028 139.104 150.11 137.679 153.362 133.092C156.129 129.186 151.431 126.703 150.126 126.106C149.922 126.009 149.799 125.965 149.799 125.965C149.799 125.965 153.793 123.28 153.439 119.339C153.416 119.085 153.376 118.824 153.311 118.555C152.283 114.195 139.739 113.965 134.805 116.371C131.116 118.172 130.115 120.199 130.263 121.999C130.418 123.916 131.876 125.575 132.773 126.428C133.185 126.815 133.474 127.033 133.474 127.033C133.474 127.033 130.771 132.676 133.999 135.534Z" fill="white"/>
<path d="M141.084 127.179C139.039 127.179 137.155 127.035 135.555 126.844C135.502 126.275 135.216 125.735 134.739 125.37C134.286 125.024 133.284 124.085 132.727 123.031C134.511 123.601 136.342 123.837 138.15 123.837C141.721 123.837 145.203 122.917 148.056 121.841C148.475 122.455 149.006 122.979 149.618 123.381C149.09 123.913 148.644 124.224 148.635 124.23C147.988 124.664 147.637 125.422 147.723 126.196C147.74 126.338 147.769 126.476 147.812 126.609C145.489 127.025 143.2 127.179 141.084 127.179Z" fill="#B9AFBE"/>
<path d="M141.271 135.45C138.676 135.45 136.449 134.914 135.385 133.972C134.938 133.577 134.692 133.053 134.579 132.479C136.163 133.325 138.368 133.722 140.717 133.722C144.926 133.721 149.598 132.449 152.003 130.199C152.036 130.269 152.063 130.337 152.085 130.407C152.135 130.576 152.269 131.023 151.657 131.886C150.502 133.513 147.248 134.892 143.558 135.318C142.779 135.407 142.01 135.45 141.271 135.45Z" fill="#B9AFBE"/>
<path d="M143.435 116.938C140.44 116.938 137.408 117.424 135.718 118.248C134.256 118.961 132.483 120.101 132.346 121.477C132.19 123.042 134.068 124.857 134.739 125.37C135.525 125.971 135.788 127.045 135.36 127.938C135.342 127.974 133.413 132.228 135.385 133.971C136.752 135.182 140.039 135.722 143.558 135.317C147.248 134.892 150.502 133.513 151.657 131.885C152.269 131.022 152.135 130.575 152.084 130.407C151.748 129.292 149.857 128.227 149.045 127.913C148.319 127.631 147.81 126.969 147.723 126.196C147.637 125.422 147.988 124.664 148.635 124.23C148.66 124.214 151.952 121.915 151.275 119.035C151.222 118.812 150.884 118.439 150.089 118.061C148.45 117.283 145.956 116.938 143.435 116.938ZM141.244 139.631C137.581 139.631 134.466 138.739 132.615 137.1C129.705 134.525 130.066 130.425 130.998 127.617C129.702 126.303 127.914 123.94 128.186 121.086C128.44 118.433 130.359 116.214 133.887 114.493C138.004 112.485 146.948 111.946 151.881 114.286C154.272 115.422 155.083 116.976 155.343 118.08C156.093 121.278 154.699 123.865 153.288 125.548C154.434 126.399 155.605 127.61 156.085 129.204C156.438 130.377 156.546 132.211 155.064 134.302C153.181 136.957 149.059 138.888 144.037 139.467C143.081 139.576 142.146 139.631 141.244 139.631Z" fill="#371A45"/>
<path d="M139.77 129.753C135.893 129.753 133.18 129.112 132.983 129.064C131.861 128.791 131.175 127.661 131.447 126.54C131.72 125.42 132.852 124.735 133.967 125.003C134.045 125.022 141.568 126.772 149.078 124.005C150.158 123.605 151.36 124.16 151.76 125.243C152.158 126.326 151.604 127.526 150.522 127.926C146.655 129.35 142.845 129.753 139.77 129.753Z" fill="#371A45"/>
<path d="M159.079 98.6437C152.511 97.0125 145.593 113.901 147.234 120.042C148.486 124.731 155.156 126.936 159.931 119.024C164.767 111.007 169.392 101.204 159.079 98.6437Z" fill="white"/>
<path d="M136.696 136.935C136.696 136.935 143.096 145.463 154.02 144.857C159.261 144.567 177.484 140.832 176.392 121.975C175.451 105.725 159.079 98.6437 159.079 98.6437C152.511 97.0125 145.593 113.901 147.234 120.042C148.486 124.731 156.181 125.272 159.483 115.354C159.483 115.354 158.688 123.694 166.72 126.786L154.081 140.248L141.818 141.497L136.696 136.935Z" fill="white"/>
<path d="M162.617 124.147L162.869 123.88C162.584 123.771 162.322 123.659 162.066 123.536C162.237 123.739 162.42 123.945 162.617 124.147Z" fill="white"/>
<path d="M148.986 122.541C148.256 122.05 147.684 121.336 147.358 120.446C147.359 120.446 147.36 120.446 147.362 120.447C147.686 121.336 148.257 122.05 148.986 122.541Z" fill="#B9AFBE"/>
<path d="M151.511 123.286C150.577 123.286 149.712 123.025 148.998 122.55C148.994 122.547 148.99 122.543 148.986 122.541C148.257 122.05 147.686 121.336 147.362 120.447C147.505 120.464 147.651 120.472 147.797 120.472C149.94 120.472 152.26 118.708 154.215 116.943C156.171 115.178 157.764 113.413 158.455 113.413C158.683 113.413 158.813 113.606 158.826 114.051C158.826 114.051 157.489 116.317 157.925 118.82C156.045 121.974 153.604 123.286 151.511 123.286Z" fill="#B9AFBE"/>
<path d="M144.893 143.172C143.756 142.668 142.727 142.091 141.815 141.498L141.818 141.497C142.715 142.082 143.724 142.649 144.838 143.147C144.857 143.155 144.874 143.162 144.891 143.171L144.893 143.172ZM176.088 127.701C176.087 127.701 176.088 127.701 176.087 127.701C176.141 127.405 176.188 127.103 176.23 126.796C176.43 125.31 176.492 123.707 176.392 121.975C176.211 118.849 175.459 116.062 174.362 113.6C175.459 116.062 176.212 118.849 176.393 121.975C176.514 124.063 176.397 125.968 176.088 127.701Z" fill="#9567BE"/>
<path d="M167.046 140.72C167.046 140.719 167.046 140.719 167.048 140.718C170.177 138.783 173.063 136.004 174.788 132.045C173.063 136.004 170.176 138.786 167.046 140.72Z" fill="#B9AFBE"/>
<path d="M152.916 144.89C151.809 144.89 150.754 144.797 149.749 144.632C149.749 144.632 149.749 144.632 149.749 144.631C150.753 144.796 151.808 144.889 152.913 144.889C153.278 144.889 153.648 144.879 154.023 144.859C156.55 144.717 162.102 143.775 167.048 140.718C167.046 140.719 167.046 140.719 167.046 140.72C162.101 143.776 156.55 144.718 154.02 144.859C153.647 144.88 153.279 144.89 152.916 144.89Z" fill="#998A9F"/>
<path d="M149.749 144.632C147.961 144.338 146.338 143.814 144.893 143.173L144.891 143.171C146.338 143.813 147.961 144.338 149.749 144.631C149.749 144.632 149.749 144.632 149.749 144.632ZM174.788 132.045C175.36 130.731 175.804 129.287 176.087 127.701C176.088 127.701 176.087 127.701 176.088 127.701C175.806 129.288 175.361 130.731 174.788 132.045Z" fill="#371A45"/>
<path d="M152.913 144.889C151.808 144.889 150.753 144.796 149.749 144.63C147.961 144.338 146.338 143.813 144.891 143.171C144.873 143.162 144.857 143.155 144.838 143.147C147.107 144.162 149.814 144.889 152.912 144.889C153.276 144.889 153.644 144.879 154.02 144.857C158.78 144.593 174.247 141.489 176.23 126.796C176.188 127.103 176.141 127.405 176.087 127.701C175.804 129.287 175.36 130.731 174.788 132.045C173.063 136.003 170.178 138.783 167.048 140.717C162.102 143.775 156.55 144.717 154.023 144.858C153.648 144.879 153.278 144.889 152.913 144.889ZM142.662 141.41L143.884 141.285C143.885 141.285 143.887 141.285 143.887 141.285L142.662 141.41Z" fill="#B9AFBE"/>
<path d="M152.912 144.889C149.814 144.889 147.107 144.162 144.838 143.147C143.724 142.649 142.715 142.082 141.817 141.497L142.662 141.41L143.887 141.285C145.464 141.722 147.196 141.984 149.07 141.984C149.432 141.984 149.799 141.975 150.172 141.955C155.414 141.665 173.636 137.925 172.543 119.07C172.054 110.636 167.403 104.668 163.052 100.879C166.542 103.169 171.488 107.275 174.285 113.43C174.287 113.432 174.288 113.433 174.288 113.436C174.292 113.442 174.296 113.451 174.298 113.458C174.301 113.463 174.302 113.466 174.304 113.472C174.308 113.48 174.312 113.489 174.316 113.498C174.32 113.505 174.322 113.511 174.325 113.517C174.327 113.521 174.329 113.525 174.33 113.529C174.341 113.553 174.352 113.576 174.362 113.599V113.6C175.459 116.062 176.211 118.849 176.391 121.975C176.492 123.707 176.43 125.31 176.23 126.796C174.247 141.489 158.78 144.593 154.02 144.857C153.644 144.879 153.276 144.889 152.912 144.889Z" fill="#B9AFBE"/>
<path d="M136.701 136.941C136.765 137.026 137.268 137.676 138.178 138.573L138.497 138.541L136.701 136.941Z" fill="white"/>
<path d="M137.967 138.594C138.183 138.735 138.407 138.88 138.64 139.016C138.478 138.864 138.324 138.714 138.178 138.574L137.967 138.594Z" fill="white"/>
<path d="M172.476 138.017C172.026 138.017 171.574 137.873 171.192 137.575C170.283 136.866 170.121 135.553 170.831 134.644C173.426 131.315 174.596 127.094 174.307 122.096C173.503 108.231 160.123 101.446 158.422 100.64C157.349 100.487 156.178 101.414 155.363 102.244C151.292 106.387 148.294 115.918 149.251 119.503C149.526 120.532 150.339 121.165 151.426 121.198C153.241 121.257 155.874 119.58 157.501 114.694C157.837 113.686 158.878 113.091 159.914 113.31C160.955 113.529 161.664 114.494 161.562 115.552C161.54 115.818 161.064 122.371 167.472 124.836C168.548 125.25 169.085 126.46 168.67 127.536C168.256 128.612 167.049 129.149 165.97 128.735C161.961 127.192 159.699 124.411 158.51 121.63C156.253 124.402 153.541 125.456 151.3 125.374C148.357 125.284 145.97 123.404 145.216 120.582C143.79 115.243 147.474 104.312 152.382 99.317C155.314 96.3349 157.916 96.2024 159.582 96.6163C159.694 96.643 159.802 96.6799 159.908 96.7258C160.625 97.0365 177.474 104.519 178.477 121.854C178.827 127.895 177.363 133.062 174.125 137.212C173.712 137.74 173.097 138.017 172.476 138.017Z" fill="#371A45"/>
<path d="M152.896 146.977C141.754 146.977 135.304 138.559 135.025 138.187C134.333 137.265 134.52 135.956 135.443 135.264C136.364 134.572 137.67 134.758 138.363 135.675C138.6 135.987 144.28 143.295 153.904 142.773C155.04 142.7 156.041 143.59 156.104 144.741C156.169 145.894 155.287 146.879 154.135 146.943C153.716 146.966 153.303 146.977 152.896 146.977Z" fill="#371A45"/>
<path d="M178.942 177.679C178.09 177.679 177.392 176.997 177.376 176.142C177.361 175.276 178.048 174.562 178.913 174.547C182.201 174.484 184.561 173.335 186.131 171.03C192.796 161.248 183.282 135.328 183.185 135.068C182.883 134.257 183.297 133.355 184.107 133.053C184.92 132.753 185.821 133.164 186.122 133.975C186.54 135.102 196.286 161.69 188.721 172.795C186.568 175.955 183.288 177.598 178.971 177.679H178.942Z" fill="#371A45"/>
<path d="M355.878 143.224C355.878 143.224 345.747 178.9 315.422 176.478C306.863 175.788 301.233 171.705 297.672 167.574C293.656 162.901 292.273 158.164 292.273 158.164L288.528 144.372L282.324 121.509L282.319 121.504L280.726 115.63C280.726 115.63 289.897 126.872 301.782 132.246C311.291 136.55 322.545 137.092 332.232 125.097L355.878 143.224Z" fill="white"/>
<path d="M318.36 174.505C317.448 174.505 316.524 174.468 315.589 174.394C308.036 173.789 302.973 170.355 299.686 166.747C299.671 166.672 299.654 166.596 299.639 166.521C298.74 162.255 297.627 158.025 296.053 153.947C299.603 158.132 305.262 162.304 313.93 162.996C315.173 163.096 316.412 163.145 317.638 163.145C334.297 163.145 348.472 154.127 335.908 140.72C340.854 143.776 346.404 144.719 348.933 144.859C349.307 144.88 349.675 144.89 350.038 144.89C351.145 144.889 352.2 144.797 353.205 144.632C352.105 147.674 349.586 153.761 345.267 159.618C337.972 169.508 328.927 174.505 318.36 174.505Z" fill="#CDC6D0"/>
<path d="M284.901 123.039L294.29 157.617C294.465 158.207 299.065 173.072 315.589 174.394C327.352 175.331 337.343 170.362 345.267 159.618C349.918 153.308 352.483 146.734 353.434 143.984L332.535 127.961C327.087 134.034 320.737 137.118 313.636 137.134C313.616 137.134 313.596 137.134 313.578 137.134C302.024 137.134 291.239 128.989 284.901 123.039ZM318.3 178.68C317.295 178.68 316.282 178.64 315.257 178.558C295.813 177.003 290.322 158.931 290.268 158.749L276.141 106.715L282.343 114.309C282.496 114.495 297.761 132.956 313.578 132.958C313.597 132.958 313.615 132.958 313.636 132.956C319.995 132.939 325.704 129.853 330.606 123.783L331.885 122.199L358.272 142.429L357.884 143.794C357.778 144.173 355.175 153.176 348.705 161.994C340.66 172.956 330.198 178.68 318.3 178.68Z" fill="#371A45"/>
<path d="M326.561 121.976C325.47 140.831 343.692 144.567 348.932 144.858C359.86 145.463 366.258 136.932 366.258 136.932L361.338 123.596L359.467 116.619L355.505 113.987C353.972 106.705 348.821 97.4134 343.874 98.6409C343.874 98.6409 327.502 105.725 326.561 121.976Z" fill="white"/>
<path d="M348.654 135.218C347.256 134.741 345.792 134.173 344.261 133.507C340.913 132.051 338.35 129.423 337.363 126.289C340.982 124.486 342.481 121.521 343.09 119.132C344.388 121.252 345.823 122.63 347.25 123.42L347.587 126.99C347.604 127.169 347.644 127.345 347.704 127.51C347.349 128.017 347.056 128.581 346.869 129.204C346.516 130.377 346.407 132.212 347.89 134.302C348.114 134.618 348.369 134.924 348.654 135.218Z" fill="#B9AFBE"/>
<path d="M347.675 105.715L349.668 126.792L364.571 118.595C364.571 118.595 368.934 116.714 374.145 113.923C382.854 109.262 393.942 102.059 390.979 96.8764C385.952 88.0788 361.251 106.201 361.251 106.201C361.251 106.201 377.339 79.3895 366.527 75.3644C360.58 73.1475 354.301 86.9659 350.704 96.6905C348.825 101.757 347.675 105.715 347.675 105.715Z" fill="white"/>
<path d="M368.771 114.354C366.519 113.348 363.024 112.747 359.52 112.747C358.086 112.747 356.65 112.848 355.296 113.063C354.428 109.534 352.779 105.67 350.758 102.815C351.23 101.366 351.756 99.8404 352.324 98.2843C354.9 101.656 355.524 107.146 358.183 109.374C360.872 111.628 365.815 112.844 370.477 113.502C369.903 113.794 369.332 114.079 368.771 114.354Z" fill="#B9AFBE"/>
<path d="M349.791 105.918L351.446 123.431L363.565 116.767C363.624 116.735 363.683 116.706 363.745 116.679C372.667 112.826 387.481 104.751 389.24 99.4802C389.508 98.6742 389.341 98.2208 389.167 97.9152C388.782 97.2429 388.221 96.8596 387.345 96.6737C381.261 95.3711 367.337 104.329 362.485 107.886C361.683 108.473 360.578 108.415 359.843 107.744C359.108 107.074 358.947 105.979 359.458 105.127C362.508 100.042 369.952 85.509 367.813 79.4045C367.446 78.3591 366.807 77.697 365.798 77.3214C365.465 77.1966 364.977 77.1061 364.172 77.5085C359.024 80.096 352.682 96.1376 349.791 105.918ZM349.666 128.882C349.33 128.882 348.995 128.8 348.688 128.639C348.067 128.31 347.653 127.69 347.587 126.99L345.594 105.912C345.57 105.65 345.595 105.386 345.668 105.133C346.47 102.375 353.75 78.0714 362.295 73.7763C363.953 72.9436 365.667 72.815 367.256 73.4058C369.425 74.2131 370.98 75.8099 371.756 78.0242C373.772 83.7772 370.189 93.228 367 99.866C373.346 95.9938 382.465 91.3664 388.213 92.5863C390.239 93.0179 391.823 94.1436 392.795 95.8422C393.647 97.3333 393.787 99.0485 393.202 100.803C390.31 109.466 368.433 119.201 365.492 120.476L350.674 128.623C350.359 128.795 350.014 128.882 349.666 128.882Z" fill="#371A45"/>
<path d="M368.954 135.534C364.925 139.104 352.845 137.679 349.591 133.092C346.824 129.186 351.523 126.703 352.828 126.106C353.032 126.009 353.154 125.965 353.154 125.965C353.154 125.965 349.161 123.28 349.515 119.339C349.538 119.085 349.579 118.824 349.644 118.555C350.67 114.195 363.214 113.965 368.149 116.371C371.838 118.172 372.838 120.199 372.691 121.999C372.536 123.916 371.078 125.575 370.181 126.428C369.769 126.815 369.478 127.033 369.478 127.033C369.478 127.033 372.183 132.676 368.954 135.534Z" fill="white"/>
<path d="M361.869 127.179C359.751 127.179 357.462 127.025 355.137 126.609C355.179 126.478 355.208 126.343 355.225 126.204C355.315 125.434 354.966 124.675 354.328 124.237C354.315 124.228 353.867 123.914 353.336 123.38C353.949 122.979 354.478 122.455 354.897 121.841C357.75 122.917 361.234 123.837 364.804 123.837C366.612 123.837 368.443 123.601 370.227 123.031C369.671 124.085 368.67 125.022 368.222 125.365C367.737 125.729 367.449 126.273 367.397 126.844C365.799 127.035 363.914 127.179 361.869 127.179Z" fill="#B9AFBE"/>
<path d="M361.683 135.45C360.944 135.45 360.175 135.407 359.396 135.318C355.706 134.892 352.451 133.513 351.298 131.886C350.686 131.025 350.819 130.579 350.868 130.413C350.889 130.341 350.917 130.27 350.95 130.199C353.355 132.449 358.028 133.722 362.236 133.722C364.585 133.722 366.788 133.325 368.373 132.48C368.26 133.055 368.014 133.578 367.57 133.972C366.505 134.914 364.277 135.45 361.683 135.45Z" fill="#B9AFBE"/>
<path d="M359.52 116.938C356.997 116.938 354.504 117.283 352.865 118.061C352.07 118.439 351.73 118.812 351.678 119.035C351.002 121.915 354.294 124.214 354.328 124.236C354.966 124.674 355.315 125.433 355.225 126.204C355.134 126.973 354.631 127.632 353.909 127.913C353.064 128.247 351.198 129.302 350.868 130.412C350.819 130.579 350.686 131.025 351.298 131.885C352.451 133.513 355.706 134.892 359.396 135.317C362.914 135.722 366.202 135.182 367.57 133.971C369.531 132.236 367.614 127.98 367.594 127.938C367.162 127.04 367.426 125.963 368.222 125.365C368.885 124.857 370.765 123.042 370.608 121.477C370.47 120.101 368.698 118.961 367.235 118.248C365.546 117.424 362.513 116.938 359.52 116.938ZM361.708 139.631C360.808 139.631 359.874 139.578 358.919 139.467C353.895 138.889 349.773 136.957 347.89 134.302C346.407 132.211 346.516 130.377 346.869 129.204C347.349 127.61 348.52 126.399 349.666 125.548C348.256 123.865 346.86 121.278 347.611 118.08C347.87 116.976 348.682 115.422 351.073 114.286C356.005 111.945 364.949 112.485 369.066 114.493C372.596 116.214 374.513 118.433 374.768 121.086C375.04 123.94 373.251 126.304 371.955 127.617C372.887 130.426 373.249 134.525 370.338 137.1C368.488 138.739 365.372 139.631 361.708 139.631Z" fill="#371A45"/>
<path d="M363.184 129.753C360.108 129.753 356.301 129.35 352.432 127.924C351.35 127.526 350.796 126.326 351.194 125.243C351.593 124.16 352.795 123.603 353.876 124.005C361.433 126.788 368.908 125.024 368.982 125.004C370.104 124.732 371.233 125.42 371.506 126.54C371.779 127.661 371.092 128.791 369.971 129.064C369.773 129.112 367.06 129.753 363.184 129.753Z" fill="#371A45"/>
<path d="M343.875 98.6437C350.442 97.0125 357.36 113.901 355.72 120.042C354.468 124.731 347.797 126.936 343.023 119.024C338.186 111.007 333.561 101.204 343.875 98.6437Z" fill="white"/>
<path d="M366.258 136.935C366.258 136.935 359.858 145.463 348.934 144.857C343.693 144.567 325.47 140.832 326.561 121.975C327.502 105.725 343.875 98.6437 343.875 98.6437C350.442 97.0125 357.36 113.901 355.72 120.042C354.468 124.731 346.772 125.272 343.47 115.354C343.47 115.354 344.266 123.694 336.233 126.786L348.872 140.248L361.137 141.497L366.258 136.935Z" fill="white"/>
<path d="M340.336 124.147L340.084 123.88C340.368 123.771 340.631 123.659 340.887 123.536C340.715 123.739 340.533 123.945 340.336 124.147Z" fill="white"/>
<path d="M353.949 122.553C354.687 122.063 355.264 121.344 355.592 120.447C355.594 120.446 355.595 120.446 355.596 120.446C355.268 121.344 354.688 122.063 353.949 122.553Z" fill="#B9AFBE"/>
<path d="M351.443 123.286C349.349 123.286 346.908 121.974 345.029 118.82C345.466 116.317 344.127 114.051 344.127 114.051C344.14 113.606 344.27 113.413 344.498 113.413C345.189 113.413 346.782 115.178 348.738 116.943C350.694 118.708 353.013 120.472 355.156 120.472C355.302 120.472 355.447 120.464 355.593 120.447C355.264 121.344 354.687 122.063 353.949 122.553C353.946 122.556 353.944 122.557 353.941 122.559C353.94 122.56 353.938 122.56 353.937 122.561C353.227 123.028 352.368 123.286 351.443 123.286Z" fill="#B9AFBE"/>
<path d="M358.062 143.172V143.171C359.197 142.667 360.224 142.091 361.135 141.497L361.138 141.498C360.226 142.091 359.199 142.668 358.062 143.172ZM326.866 127.701C326.556 125.968 326.44 124.063 326.561 121.975C326.754 118.644 327.595 115.697 328.813 113.118C327.597 115.696 326.755 118.644 326.561 121.975C326.447 123.964 326.546 125.785 326.822 127.45C326.837 127.534 326.851 127.617 326.866 127.701Z" fill="#9567BE"/>
<path d="M335.908 140.72C332.778 138.786 329.89 136.004 328.165 132.045C328.166 132.045 328.165 132.045 328.166 132.045C329.626 135.398 331.921 137.906 334.489 139.77C334.491 139.77 334.492 139.772 334.493 139.772C334.502 139.778 334.51 139.784 334.519 139.791C334.524 139.794 334.53 139.798 334.535 139.802C334.539 139.806 334.543 139.809 334.548 139.811C334.554 139.816 334.562 139.821 334.568 139.826C334.571 139.829 334.573 139.83 334.577 139.833C335.013 140.146 335.457 140.441 335.905 140.718C335.907 140.719 335.907 140.719 335.908 140.72Z" fill="#B9AFBE"/>
<path d="M350.038 144.89C349.675 144.89 349.307 144.88 348.933 144.859C346.404 144.718 340.854 143.776 335.908 140.72C335.907 140.719 335.907 140.719 335.905 140.718C337.148 141.485 338.428 142.12 339.688 142.642C339.69 142.642 339.69 142.642 339.691 142.643C339.699 142.645 339.705 142.648 339.713 142.652C339.715 142.653 339.719 142.654 339.722 142.656C339.725 142.657 339.73 142.658 339.734 142.661C339.741 142.663 339.746 142.666 339.752 142.668C339.753 142.668 339.755 142.668 339.755 142.668C343.491 144.204 347.048 144.753 348.932 144.859C349.306 144.879 349.677 144.889 350.039 144.889C351.145 144.889 352.202 144.796 353.205 144.631C353.205 144.632 353.205 144.632 353.205 144.632C352.2 144.797 351.145 144.889 350.038 144.89Z" fill="#998A9F"/>
<path d="M353.205 144.632C353.205 144.632 353.205 144.632 353.205 144.631C354.891 144.354 356.429 143.872 357.812 143.28C357.813 143.28 357.813 143.28 357.815 143.278C357.817 143.277 357.82 143.277 357.822 143.276C357.904 143.241 357.983 143.207 358.062 143.171V143.173C356.615 143.814 354.992 144.338 353.205 144.632ZM328.165 132.045C327.593 130.731 327.149 129.288 326.866 127.701C327.149 129.287 327.593 130.731 328.166 132.045C328.165 132.045 328.166 132.045 328.165 132.045Z" fill="#371A45"/>
<path d="M350.039 144.889C349.677 144.889 349.306 144.879 348.932 144.858C347.048 144.753 343.491 144.204 339.755 142.668C343.492 144.204 347.051 144.753 348.934 144.857C349.309 144.879 349.678 144.889 350.041 144.889C353.003 144.888 355.607 144.224 357.812 143.279C356.429 143.872 354.891 144.354 353.205 144.63C352.202 144.796 351.145 144.889 350.039 144.889ZM357.814 143.278C357.817 143.278 357.82 143.276 357.822 143.276C357.82 143.277 357.817 143.277 357.814 143.278ZM339.721 142.655C339.719 142.654 339.715 142.653 339.713 142.652C339.715 142.653 339.718 142.654 339.721 142.655ZM339.691 142.643C339.69 142.641 339.69 142.641 339.688 142.641L339.691 142.643ZM360.3 141.411L359.066 141.285C359.067 141.285 359.069 141.285 359.069 141.285L360.3 141.411ZM334.489 139.77C331.921 137.906 329.626 135.397 328.166 132.045C327.593 130.731 327.148 129.287 326.866 127.701C326.85 127.617 326.836 127.534 326.822 127.45C327.781 133.22 330.862 137.137 334.489 139.77Z" fill="#B9AFBE"/>
<path d="M328.852 113.035C328.854 113.03 328.856 113.024 328.859 113.021C328.856 113.026 328.855 113.03 328.852 113.035Z" fill="#9567BE"/>
<path d="M350.041 144.889C349.678 144.889 349.309 144.879 348.934 144.857C347.051 144.753 343.492 144.204 339.755 142.668C339.755 142.668 339.753 142.668 339.752 142.668C339.746 142.666 339.741 142.663 339.734 142.661C339.731 142.658 339.725 142.657 339.722 142.655C339.718 142.654 339.715 142.653 339.713 142.652C339.705 142.648 339.699 142.645 339.691 142.643L339.688 142.641C338.428 142.119 337.148 141.485 335.905 140.717C335.457 140.441 335.013 140.146 334.577 139.832C334.573 139.83 334.571 139.829 334.568 139.826C334.562 139.821 334.554 139.816 334.548 139.811C334.543 139.808 334.539 139.806 334.535 139.802C334.53 139.798 334.524 139.794 334.519 139.79C334.51 139.784 334.502 139.778 334.493 139.771C334.492 139.771 334.491 139.77 334.489 139.77C330.862 137.137 327.781 133.22 326.823 127.45C326.546 125.785 326.447 123.964 326.562 121.975C326.755 118.644 327.597 115.696 328.813 113.118C328.813 113.116 328.813 113.116 328.814 113.115C328.819 113.104 328.826 113.091 328.831 113.079C328.831 113.079 328.832 113.078 328.832 113.077C328.836 113.068 328.841 113.058 328.845 113.049C328.847 113.044 328.85 113.04 328.852 113.035C328.855 113.03 328.856 113.026 328.859 113.021C331.687 107.092 336.49 103.118 339.902 100.879C335.551 104.668 330.899 110.636 330.411 119.07C329.317 137.925 347.539 141.665 352.782 141.955C353.154 141.975 353.521 141.984 353.883 141.984C355.758 141.984 357.49 141.722 359.066 141.285L360.3 141.411L361.136 141.497C360.224 142.091 359.197 142.667 358.062 143.171C357.983 143.207 357.904 143.241 357.822 143.276C357.82 143.276 357.817 143.278 357.815 143.278C357.813 143.279 357.813 143.279 357.812 143.279C355.607 144.224 353.003 144.888 350.041 144.889Z" fill="#B9AFBE"/>
<path d="M366.252 136.941C366.188 137.026 365.685 137.676 364.775 138.573L364.458 138.541L366.252 136.941Z" fill="white"/>
<path d="M364.987 138.594C364.769 138.735 364.545 138.88 364.314 139.016C364.474 138.864 364.628 138.714 364.774 138.574L364.987 138.594Z" fill="white"/>
<path d="M330.477 138.017C329.856 138.017 329.241 137.74 328.829 137.212C325.591 133.061 324.127 127.894 324.476 121.854C325.479 104.519 342.328 97.0365 343.045 96.7258C343.151 96.6799 343.26 96.643 343.371 96.6163C345.037 96.2024 347.639 96.3349 350.571 99.317C355.479 104.312 359.164 115.243 357.738 120.582C356.984 123.404 354.596 125.284 351.653 125.374C349.433 125.463 346.701 124.403 344.443 121.631C343.255 124.411 340.994 127.192 336.984 128.735C335.905 129.15 334.698 128.613 334.283 127.536C333.869 126.46 334.407 125.25 335.483 124.836C341.889 122.371 341.414 115.818 341.39 115.541C341.301 114.486 342.014 113.526 343.05 113.314C344.088 113.099 345.118 113.691 345.452 114.694C347.054 119.505 349.659 121.2 351.443 121.2C351.472 121.2 351.499 121.2 351.527 121.198C352.614 121.165 353.427 120.532 353.702 119.503C354.659 115.918 351.661 106.387 347.591 102.244C346.776 101.416 345.596 100.489 344.531 100.64C342.844 101.441 329.451 108.224 328.647 122.096C328.358 127.094 329.527 131.315 332.124 134.644C332.833 135.553 332.67 136.866 331.761 137.575C331.379 137.873 330.927 138.017 330.477 138.017Z" fill="#371A45"/>
<path d="M350.057 146.977C349.65 146.977 349.239 146.966 348.818 146.943C347.666 146.879 346.785 145.894 346.849 144.741C346.912 143.59 347.917 142.701 349.05 142.773C358.664 143.291 364.353 135.987 364.591 135.675C365.288 134.76 366.597 134.576 367.515 135.27C368.433 135.964 368.619 137.268 367.929 138.189C367.65 138.559 361.199 146.977 350.057 146.977Z" fill="#371A45"/>
<path d="M324.012 177.679H323.982C319.665 177.598 316.386 175.955 314.233 172.795C306.667 161.69 316.413 135.102 316.832 133.975C317.134 133.164 318.038 132.753 318.845 133.053C319.657 133.355 320.07 134.257 319.769 135.067C319.671 135.328 310.163 161.259 316.823 171.031C318.393 173.335 320.754 174.484 324.04 174.547C324.906 174.562 325.594 175.276 325.577 176.142C325.561 176.997 324.863 177.679 324.012 177.679Z" fill="#371A45"/>
<path d="M300.93 213.721H200.749C200.076 197.032 201.527 181.977 203.888 169.078C204.634 164.994 205.47 161.13 206.357 157.5C207.982 150.889 209.774 145.051 211.502 140.095C211.789 139.275 212.071 138.482 212.352 137.714C214.014 133.171 215.58 129.474 216.838 126.716C218.562 122.93 219.701 120.915 219.701 120.915H281.984C281.984 120.915 282.1 121.113 282.319 121.504L282.324 121.509C283.092 122.91 285.123 126.763 287.578 132.773C288.711 135.552 289.937 138.795 291.175 142.466C291.604 143.766 292.042 145.113 292.477 146.519C294.356 152.587 296.183 159.642 297.672 167.574C297.677 167.606 297.682 167.636 297.687 167.668C300.142 180.776 301.661 196.28 300.93 213.721Z" fill="white"/>
<path d="M294.991 151.38C297.146 156.238 298.55 161.353 299.639 166.521C300.732 171.687 301.498 176.924 302.027 182.178C302.563 187.432 302.892 192.702 303.087 197.976C303.254 203.25 303.231 208.531 303.017 213.803V213.806L302.948 215.808H300.93H200.752H200.749H198.741L198.662 213.804C198.451 208.525 198.442 203.239 198.637 197.96C198.827 192.679 199.201 187.407 199.752 182.151C200.315 176.896 201.1 171.661 202.21 166.493C202.755 163.906 203.395 161.342 204.154 158.809L204.753 156.917C204.96 156.289 205.198 155.67 205.42 155.046C205.878 153.805 206.35 152.567 206.887 151.352C207.124 150.82 207.746 150.579 208.279 150.815C208.704 151.004 208.943 151.438 208.903 151.876L208.9 151.913C208.654 154.542 208.141 157.086 207.74 159.653L206.389 167.305C205.517 172.405 204.703 177.511 204.069 182.646C203.421 187.778 203.002 192.941 202.811 198.114C202.621 203.285 202.63 208.463 202.836 213.635L200.749 211.63H200.752H300.93L298.843 213.632V213.628C299.053 208.46 299.075 203.283 298.911 198.115C298.815 195.531 298.695 192.948 298.482 190.37C298.291 187.792 298.037 185.218 297.721 182.654C297.108 177.52 296.312 172.417 295.452 167.319C294.583 162.222 293.617 157.15 292.978 151.939C292.906 151.36 293.317 150.833 293.895 150.762C294.367 150.702 294.807 150.968 294.991 151.38Z" fill="#371A45"/>
<path d="M268.492 209.756C268.492 209.756 295.279 194.14 317.443 216.665C337.812 237.364 314.005 257.787 314.005 257.787C314.005 257.787 321.341 280.817 302.293 284.436C286.126 287.506 271.518 277.058 273.385 257.727C274.921 241.832 278.411 243.313 277.125 234.594C275.67 224.723 254.627 222.5 254.627 222.5H246.712C246.712 222.5 225.671 224.723 224.216 234.594C222.93 243.313 226.42 241.832 227.956 257.727C229.823 277.058 215.215 287.506 199.048 284.436C180 280.817 187.336 257.787 187.336 257.787C187.336 257.787 163.529 237.364 183.898 216.665C206.061 194.14 232.849 209.756 232.849 209.756H268.492Z" fill="white"/>
<path d="M204.584 282.873C202.633 282.873 200.676 282.653 198.777 282.229L197.878 282.022L197.013 281.743C196.423 281.583 195.899 281.307 195.342 281.091C194.291 280.558 193.28 279.964 192.428 279.192C192.217 279 192.012 278.801 191.813 278.596C193.149 278.736 194.474 278.806 195.777 278.806C212.211 278.806 225.584 267.819 223.619 249.307C223.371 246.973 223.079 244.984 222.764 243.267C222.929 243.784 223.098 244.279 223.255 244.757C223.671 246.032 224.061 247.254 224.36 248.522C224.989 251.04 225.393 253.653 225.694 256.293C225.85 257.633 225.981 258.909 226.006 260.178C226.025 260.815 226.032 261.452 225.997 262.085C225.991 262.72 225.922 263.348 225.866 263.977C225.613 266.487 224.966 268.926 223.947 271.178C223.439 272.305 222.805 273.363 222.111 274.376C221.401 275.378 220.588 276.302 219.713 277.16C217.936 278.853 215.836 280.206 213.547 281.152C210.743 282.321 207.671 282.873 204.584 282.873ZM296.758 282.873C293.67 282.873 290.597 282.321 287.793 281.152C285.504 280.204 283.404 278.852 281.628 277.16C280.752 276.302 279.939 275.378 279.229 274.375C278.536 273.363 277.902 272.303 277.394 271.176C276.375 268.926 275.728 266.485 275.475 263.976C275.419 263.347 275.35 262.72 275.344 262.083C275.309 261.452 275.316 260.815 275.335 260.177C275.361 258.908 275.491 257.632 275.647 256.292C275.948 253.651 276.352 251.04 276.981 248.521C277.28 247.254 277.67 246.03 278.086 244.757C278.242 244.281 278.41 243.787 278.574 243.272C278.261 244.989 277.971 246.975 277.724 249.307C275.759 267.817 289.133 278.805 305.564 278.806C306.869 278.806 308.191 278.738 309.528 278.596C309.329 278.803 309.124 279.001 308.912 279.192C308.06 279.965 307.049 280.56 305.998 281.091C305.441 281.307 304.917 281.583 304.326 281.743L303.462 282.022L302.563 282.229C300.664 282.653 298.707 282.873 296.758 282.873ZM221.925 239.429C220.057 232.203 218.014 231.326 219.163 224.252C220.896 213.564 245.957 211.157 245.957 211.157H255.385C255.385 211.157 280.446 213.564 282.178 224.252C283.324 231.322 281.282 232.202 279.416 239.417C279.525 238.22 279.488 237.037 279.392 235.914L279.259 234.829L279.192 234.286L279.058 233.643C278.887 232.782 278.554 231.965 278.162 231.206C277.359 229.682 276.226 228.468 275.029 227.481C273.826 226.489 272.541 225.7 271.234 225.023C268.614 223.679 265.902 222.766 263.174 222.031C260.425 221.307 257.726 220.772 254.848 220.423L254.752 220.412H254.627H246.714H246.589L246.493 220.423C243.616 220.772 240.916 221.307 238.167 222.031C235.439 222.766 232.726 223.679 230.107 225.023C228.799 225.7 227.514 226.489 226.312 227.481C225.115 228.468 223.982 229.683 223.18 231.206C222.787 231.965 222.454 232.784 222.283 233.643L222.149 234.286L222.082 234.83L221.949 235.914C221.853 237.04 221.816 238.228 221.925 239.429Z" fill="#CDC6D0"/>
<path d="M267.966 208.853C269.811 207.6 271.711 206.668 273.697 205.8C275.685 204.966 277.736 204.271 279.837 203.734C281.938 203.193 284.088 202.82 286.263 202.6C288.439 202.417 290.638 202.375 292.833 202.531C297.222 202.841 301.572 203.925 305.635 205.669C309.682 207.454 313.4 209.919 316.687 212.81C319.959 215.658 322.936 219.091 325.067 223.103C326.097 225.129 326.922 227.284 327.427 229.536C327.904 231.794 328.058 234.12 327.892 236.409C327.727 238.698 327.255 240.947 326.531 243.082C325.803 245.219 324.845 247.246 323.732 249.16C322.618 251.075 321.35 252.877 319.969 254.579C319.275 255.427 318.556 256.254 317.793 257.043C317.414 257.439 317.028 257.83 316.631 258.213C316.223 258.606 315.849 258.958 315.365 259.374L315.995 257.154L315.997 257.158C316.231 257.933 316.395 258.593 316.556 259.309C316.711 260.011 316.851 260.716 316.967 261.425C317.202 262.841 317.364 264.272 317.435 265.719C317.573 268.607 317.388 271.581 316.521 274.496C316.087 275.947 315.499 277.384 314.686 278.72C313.869 280.053 312.849 281.274 311.677 282.323C310.503 283.38 309.154 284.186 307.777 284.87C307.072 285.158 306.375 285.501 305.651 285.705L304.572 286.049L303.483 286.304C300.612 286.959 297.707 287.155 294.774 286.987C293.313 286.87 291.854 286.68 290.416 286.351C288.982 286.009 287.561 285.588 286.194 285.011C284.83 284.432 283.498 283.762 282.249 282.946C281.005 282.127 279.818 281.211 278.738 280.178C277.669 279.135 276.681 278.006 275.817 276.787C274.972 275.558 274.208 274.272 273.595 272.917C272.368 270.212 271.614 267.318 271.32 264.416C271.254 263.69 271.178 262.964 271.17 262.239C271.13 261.511 271.136 260.788 271.158 260.065C271.189 258.613 271.338 257.178 271.495 255.816C271.813 253.054 272.238 250.274 272.928 247.511C273.255 246.129 273.691 244.757 274.12 243.445C274.555 242.127 274.969 240.939 275.153 239.828C275.345 238.712 275.336 237.546 275.232 236.308L275.116 235.367L275.058 234.897L274.978 234.543C274.892 234.066 274.698 233.612 274.471 233.165C273.538 231.362 271.515 229.873 269.318 228.734C267.092 227.589 264.619 226.745 262.098 226.068C259.587 225.401 256.932 224.882 254.408 224.578L254.627 224.589H246.714L246.933 224.578C244.408 224.882 241.754 225.401 239.243 226.068C236.722 226.745 234.249 227.589 232.023 228.734C229.826 229.873 227.803 231.362 226.87 233.165C226.643 233.614 226.449 234.067 226.362 234.543L226.283 234.897L226.225 235.367L226.108 236.308C226.005 237.547 225.996 238.712 226.188 239.828C226.372 240.94 226.786 242.127 227.221 243.446C227.65 244.758 228.087 246.131 228.413 247.512C229.103 250.275 229.528 253.054 229.846 255.817C230.003 257.18 230.151 258.615 230.183 260.066C230.205 260.788 230.211 261.513 230.171 262.239C230.163 262.964 230.087 263.691 230.021 264.417C229.727 267.319 228.972 270.214 227.744 272.918C227.133 274.273 226.369 275.559 225.522 276.788C224.659 278.006 223.671 279.135 222.601 280.179C221.522 281.213 220.335 282.128 219.091 282.947C217.842 283.762 216.51 284.432 215.146 285.012C213.777 285.588 212.356 286.009 210.924 286.351C209.486 286.682 208.025 286.87 206.565 286.987C203.632 287.155 200.728 286.959 197.856 286.304L196.766 286.049L195.688 285.704C194.963 285.501 194.268 285.158 193.563 284.87C192.185 284.185 190.836 283.379 189.662 282.322C188.491 281.273 187.471 280.05 186.653 278.718C185.842 277.382 185.254 275.946 184.82 274.495C183.953 271.579 183.768 268.604 183.906 265.717C183.977 264.27 184.139 262.838 184.374 261.422C184.49 260.713 184.63 260.009 184.787 259.306C184.947 258.59 185.11 257.931 185.346 257.155V257.154L185.976 259.372C185.492 258.958 185.118 258.606 184.71 258.213C184.312 257.83 183.927 257.439 183.548 257.043C182.785 256.253 182.066 255.429 181.372 254.579C179.991 252.877 178.722 251.075 177.609 249.161C175.383 245.349 173.76 241.008 173.446 236.409C173.281 234.12 173.435 231.793 173.911 229.535C174.417 227.283 175.242 225.128 176.272 223.101C178.406 219.092 181.372 215.647 184.654 212.808C186.279 211.341 188.048 210.024 189.885 208.813C191.721 207.594 193.677 206.547 195.706 205.669C199.756 203.896 204.116 202.823 208.507 202.515C210.702 202.341 212.901 202.417 215.08 202.581C217.255 202.793 219.404 203.178 221.511 203.698C223.61 204.253 225.665 204.938 227.649 205.785C229.638 206.645 231.535 207.591 233.375 208.853C233.851 209.181 233.972 209.833 233.646 210.309C233.361 210.723 232.831 210.869 232.385 210.684L232.323 210.659C230.506 209.909 228.545 209.229 226.611 208.676C224.667 208.117 222.703 207.656 220.728 207.307C218.753 206.947 216.763 206.76 214.782 206.619C213.789 206.602 212.798 206.526 211.809 206.579L210.325 206.616C209.834 206.652 209.339 206.675 208.849 206.72C204.917 207.064 201.074 208.084 197.507 209.717C193.934 211.338 190.634 213.562 187.693 216.22C184.701 218.872 182.171 221.884 180.357 225.235C179.496 226.927 178.817 228.69 178.402 230.513C178.015 232.34 177.886 234.213 178.018 236.084C178.546 243.59 183.148 250.861 188.696 256.202L189.731 257.197L189.326 258.421V258.422C189.167 258.948 188.998 259.609 188.863 260.222C188.724 260.845 188.598 261.477 188.495 262.111C188.285 263.378 188.141 264.654 188.078 265.925C187.955 268.463 188.132 271 188.826 273.309C189.171 274.461 189.624 275.563 190.226 276.554C190.835 277.54 191.576 278.423 192.428 279.192C193.28 279.964 194.291 280.558 195.342 281.09C195.899 281.307 196.423 281.583 197.013 281.742L197.878 282.021L198.777 282.229C203.683 283.324 208.97 283.059 213.547 281.152C215.836 280.206 217.936 278.853 219.713 277.16C220.588 276.301 221.401 275.378 222.111 274.376C222.805 273.363 223.439 272.304 223.947 271.177C224.966 268.926 225.613 266.486 225.866 263.977C225.922 263.348 225.991 262.72 225.997 262.084C226.032 261.452 226.025 260.815 226.006 260.178C225.981 258.909 225.85 257.633 225.694 256.293C225.393 253.652 224.989 251.039 224.36 248.522C224.061 247.254 223.671 246.031 223.255 244.757C222.842 243.494 222.338 242.106 222.07 240.529C221.798 238.96 221.822 237.384 221.949 235.913L222.082 234.83L222.149 234.286L222.283 233.643C222.454 232.783 222.787 231.965 223.18 231.206C223.982 229.683 225.115 228.468 226.312 227.481C227.514 226.489 228.799 225.7 230.107 225.022C232.726 223.679 235.439 222.766 238.167 222.031C240.916 221.307 243.615 220.772 246.493 220.423L246.589 220.412H246.714H254.627H254.752L254.848 220.423C257.726 220.772 260.425 221.307 263.174 222.031C265.902 222.766 268.614 223.679 271.234 225.022C272.541 225.7 273.826 226.489 275.029 227.481C276.226 228.468 277.359 229.682 278.161 231.206C278.554 231.965 278.887 232.782 279.058 233.643L279.192 234.286L279.259 234.828L279.392 235.913C279.519 237.384 279.543 238.959 279.271 240.529C279.003 242.104 278.499 243.494 278.086 244.757C277.67 246.03 277.28 247.254 276.981 248.521C276.352 251.039 275.948 253.651 275.647 256.292C275.491 257.632 275.361 258.907 275.335 260.177C275.316 260.815 275.309 261.452 275.344 262.083C275.35 262.72 275.419 263.346 275.475 263.975C275.728 266.485 276.375 268.926 277.394 271.176C277.902 272.303 278.536 273.363 279.229 274.375C279.939 275.378 280.751 276.301 281.628 277.16C283.404 278.852 285.504 280.204 287.793 281.152C292.37 283.059 297.656 283.324 302.563 282.229L303.462 282.021L304.326 281.742C304.917 281.583 305.44 281.307 305.998 281.09C307.049 280.56 308.06 279.965 308.912 279.192C309.763 278.424 310.505 277.542 311.113 276.555C311.717 275.564 312.169 274.463 312.515 273.31C313.209 271.002 313.386 268.464 313.263 265.927C313.2 264.657 313.056 263.379 312.846 262.112C312.743 261.478 312.617 260.848 312.478 260.223C312.343 259.61 312.174 258.949 312.015 258.424V258.421L311.61 257.197L312.644 256.202C318.196 250.862 322.792 243.59 323.327 236.085C323.457 234.213 323.328 232.34 322.943 230.513C322.526 228.69 321.848 226.926 320.988 225.234C319.172 221.882 316.642 218.871 313.657 216.211C310.706 213.561 307.398 211.361 303.841 209.699C300.262 208.093 296.425 207.06 292.492 206.715C288.562 206.354 284.558 206.579 280.606 207.279C276.674 207.98 272.698 209.114 269.018 210.659L268.958 210.683C268.425 210.907 267.813 210.656 267.589 210.124C267.393 209.657 267.562 209.128 267.966 208.853Z" fill="#371A45"/>
<path d="M187.937 255.786C188.058 255.831 188.292 255.902 188.49 255.956C188.692 256.014 188.906 256.067 189.121 256.119C189.547 256.226 189.988 256.311 190.428 256.396C191.314 256.554 192.214 256.692 193.123 256.771C194.942 256.944 196.787 256.99 198.634 256.896C200.477 256.772 202.333 256.599 204.161 256.221C205.084 256.076 205.983 255.82 206.897 255.613C207.804 255.384 208.695 255.09 209.599 254.831L209.674 254.81C210.228 254.651 210.806 254.972 210.964 255.524C211.115 256.046 210.834 256.59 210.34 256.783C209.426 257.14 208.519 257.531 207.589 257.859C206.651 258.164 205.726 258.518 204.766 258.761C202.868 259.335 200.91 259.703 198.939 260.013C196.963 260.295 194.958 260.43 192.939 260.421C191.929 260.425 190.915 260.365 189.897 260.278C189.387 260.225 188.878 260.173 188.361 260.093C188.104 260.056 187.847 260.018 187.582 259.967C187.309 259.917 187.078 259.874 186.736 259.789L186.713 259.782C185.593 259.503 184.91 258.368 185.189 257.247C185.469 256.125 186.604 255.443 187.726 255.723C187.797 255.739 187.87 255.762 187.937 255.786Z" fill="#371A45"/>
<path d="M314.471 259.828C313.396 260.003 312.439 260.107 311.426 260.194C310.428 260.281 309.43 260.339 308.43 260.367C306.432 260.424 304.431 260.374 302.433 260.191C300.435 259.986 298.445 259.645 296.49 259.118C294.542 258.546 292.642 257.769 290.88 256.717C290.384 256.421 290.224 255.78 290.519 255.285C290.797 254.819 291.381 254.648 291.861 254.876L291.907 254.898C293.545 255.681 295.292 256.219 297.089 256.576C298.901 256.891 300.743 257.039 302.597 257.062C304.452 257.064 306.313 256.941 308.16 256.721C309.085 256.612 310.007 256.474 310.918 256.31C311.82 256.152 312.769 255.956 313.584 255.746L313.615 255.738C314.733 255.45 315.874 256.124 316.162 257.242C316.45 258.361 315.776 259.502 314.658 259.79C314.597 259.805 314.532 259.819 314.471 259.828Z" fill="#371A45"/>
<path d="M324.755 242.718C324.646 242.718 324.536 242.707 324.425 242.682C323.579 242.502 323.041 241.669 323.221 240.822C323.936 237.488 323.416 235.122 321.632 233.592C314.23 227.242 287.594 235.362 277.956 239.028C277.145 239.336 276.242 238.929 275.934 238.12C275.627 237.311 276.032 236.407 276.842 236.099C280.567 234.682 313.524 222.506 323.672 231.215C326.369 233.528 327.249 236.982 326.285 241.479C326.127 242.215 325.478 242.718 324.755 242.718Z" fill="#371A45"/>
<path d="M177.21 242.718C176.488 242.718 175.838 242.215 175.68 241.479C174.717 236.982 175.596 233.528 178.294 231.215C188.445 222.505 221.401 234.682 225.124 236.099C225.934 236.407 226.339 237.311 226.032 238.12C225.724 238.929 224.82 239.336 224.01 239.028C214.372 235.362 187.736 227.24 180.334 233.592C178.55 235.122 178.03 237.488 178.745 240.822C178.925 241.669 178.386 242.502 177.54 242.682C177.429 242.707 177.319 242.718 177.21 242.718Z" fill="#371A45"/>
<path d="M227.29 191.914C220.899 194.501 211.009 193.96 204.266 193.144C200.222 192.655 197.384 188.923 197.979 184.893C198.522 181.215 201.759 178.541 205.472 178.716C211.779 179.011 221.239 179.15 227.23 177.82L227.29 191.914Z" fill="white"/>
<path d="M214.541 191.724C211.504 191.724 208.137 191.508 204.517 191.07C203.128 190.902 201.897 190.196 201.047 189.084C200.195 187.968 199.84 186.589 200.046 185.198C200.08 184.968 200.128 184.744 200.19 184.526C201.273 185.541 202.677 186.235 204.266 186.427C207.28 186.792 210.926 187.103 214.607 187.103C216.325 187.103 218.049 187.036 219.722 186.874V191.482C218.131 191.644 216.398 191.724 214.541 191.724Z" fill="#CDC6D0"/>
<path d="M226.505 189.977C227.561 189.551 227.96 187.801 228.081 187.069C228.554 184.224 227.788 181.006 227.123 179.978C221.008 181.211 211.973 181.111 205.375 180.803C202.728 180.673 200.435 182.568 200.046 185.198C199.84 186.589 200.195 187.968 201.047 189.085C201.897 190.196 203.128 190.902 204.517 191.07C214.093 192.227 221.902 191.841 226.505 189.977ZM214.577 195.906C210.862 195.906 207.173 195.599 204.016 195.217C201.498 194.913 199.265 193.634 197.726 191.619C196.186 189.599 195.541 187.102 195.912 184.587C196.616 179.825 200.772 176.411 205.57 176.629C214.826 177.063 222.359 176.761 226.778 175.781C227.778 175.559 230.255 175.532 231.661 180.057C233.036 184.476 232.847 191.918 228.074 193.849C224.272 195.389 219.403 195.906 214.577 195.906Z" fill="#371A45"/>
<path d="M276.171 191.914C282.562 194.501 292.452 193.96 299.195 193.144C303.239 192.655 306.077 188.923 305.481 184.893C304.937 181.215 301.701 178.541 297.987 178.716C291.681 179.011 282.221 179.15 276.231 177.82L276.171 191.914Z" fill="white"/>
<path d="M288.922 191.725C285.819 191.725 283.06 191.499 280.728 191.049V186.403C283.287 186.865 286.08 187.041 288.852 187.041C292.534 187.041 296.178 186.731 299.193 186.365C300.777 186.176 302.177 185.486 303.257 184.476C303.325 184.709 303.379 184.951 303.416 185.198C303.621 186.587 303.265 187.968 302.414 189.085C301.564 190.196 300.332 190.902 298.944 191.07C295.325 191.509 291.959 191.725 288.922 191.725Z" fill="#CDC6D0"/>
<path d="M276.954 189.977C281.559 191.841 289.368 192.23 298.944 191.07C300.332 190.902 301.564 190.196 302.414 189.085C303.266 187.968 303.621 186.588 303.416 185.198C303.026 182.568 300.737 180.675 298.086 180.803C291.487 181.112 282.451 181.21 276.338 179.978C275.673 181.006 274.907 184.224 275.38 187.069C275.501 187.801 275.899 189.551 276.954 189.977ZM288.884 195.906C284.057 195.906 279.189 195.389 275.387 193.849C270.614 191.918 270.425 184.476 271.8 180.057C273.206 175.532 275.683 175.559 276.683 175.781C281.102 176.761 288.635 177.062 297.891 176.629C302.696 176.405 306.844 179.826 307.548 184.587C307.92 187.102 307.275 189.598 305.735 191.619C304.196 193.634 301.963 194.913 299.445 195.217C296.288 195.599 292.597 195.906 288.884 195.906Z" fill="#371A45"/>
<path d="M278.64 173.162V195.748C278.64 199.938 275.211 203.369 271.02 203.369H229.427C225.241 203.369 221.811 199.938 221.811 195.748V173.162C221.811 168.972 225.241 165.548 229.427 165.548H271.02C273.487 165.548 275.69 166.736 277.087 168.567C278.061 169.845 278.64 171.44 278.64 173.162Z" fill="white"/>
<path d="M271.023 201.278H229.428C226.379 201.278 223.9 198.799 223.9 195.75V189.174C230.55 194.444 241.49 197.674 251.61 197.728C251.621 197.728 251.634 197.728 251.645 197.728C255.249 197.728 258.151 194.872 258.408 191.272C258.411 191.236 258.413 191.201 258.417 191.164C258.515 190.046 258.902 189.004 259.503 188.112C260.682 189.869 262.687 191.025 264.961 191.025C267.239 191.025 269.246 189.866 270.423 188.105C271.004 188.972 271.383 189.985 271.496 191.077C275.876 185.669 275.708 177.055 276.371 171.763C276.488 172.21 276.551 172.68 276.551 173.163V195.75C276.551 198.799 274.07 201.278 271.023 201.278Z" fill="#CDC6D0"/>
<path d="M229.428 167.635C226.379 167.635 223.9 170.115 223.9 173.163V195.751C223.9 198.799 226.379 201.278 229.428 201.278H271.023C274.07 201.278 276.551 198.799 276.551 195.751V173.163C276.551 170.115 274.07 167.635 271.023 167.635H229.428ZM271.023 205.457H229.428C224.076 205.457 219.722 201.102 219.722 195.751V173.163C219.722 167.812 224.076 163.457 229.428 163.457H271.023C276.374 163.457 280.729 167.812 280.729 173.163V195.751C280.729 201.102 276.374 205.457 271.023 205.457Z" fill="#371A45"/>
<path d="M271.53 184.457C271.53 188.085 268.588 191.025 264.96 191.025C261.333 191.025 258.393 188.085 258.393 184.457C258.393 180.829 261.333 177.889 264.96 177.889C268.588 177.889 271.53 180.829 271.53 184.457Z" fill="#22A7F0"/>
<path d="M271.401 185.769C271.401 185.768 271.4 185.765 271.4 185.762C271.468 185.422 271.511 185.074 271.525 184.717C271.511 185.075 271.47 185.425 271.401 185.769ZM258.519 185.769C258.434 185.343 258.39 184.907 258.39 184.457C258.39 182.396 259.34 180.557 260.826 179.354C259.341 180.557 258.393 182.397 258.393 184.457C258.393 184.902 258.437 185.337 258.521 185.757C258.52 185.761 258.52 185.765 258.519 185.769Z" fill="white"/>
<path d="M271.4 185.762C271.399 185.76 271.399 185.759 271.399 185.756C271.483 185.336 271.527 184.902 271.527 184.456C271.527 183.617 271.369 182.817 271.076 182.079C270.898 182.541 270.669 182.978 270.395 183.382C269.212 181.646 267.219 180.506 264.962 180.506C262.702 180.506 260.708 181.646 259.525 183.381C259.251 182.978 259.022 182.541 258.843 182.079C258.55 182.817 258.393 183.617 258.393 184.456C258.393 184.9 258.437 185.336 258.521 185.756V185.757C258.437 185.337 258.393 184.902 258.393 184.457C258.393 182.397 259.341 180.557 260.826 179.354C261.955 178.438 263.394 177.89 264.962 177.89C268.587 177.89 271.528 180.828 271.528 184.457C271.528 184.544 271.527 184.63 271.525 184.717C271.511 185.073 271.467 185.422 271.4 185.762Z" fill="#BCE4FA"/>
<path d="M264.961 191.022C261.779 191.022 259.125 188.759 258.521 185.756C258.698 184.89 259.045 184.086 259.525 183.381C260.703 185.122 262.698 186.264 264.961 186.264C267.222 186.264 269.218 185.122 270.395 183.382C270.875 184.086 271.222 184.89 271.399 185.756C270.795 188.761 268.142 191.022 264.961 191.022Z" fill="#2976B4"/>
<path d="M271.399 185.756C271.222 184.89 270.875 184.087 270.395 183.383C270.669 182.978 270.898 182.541 271.076 182.079C271.369 182.817 271.527 183.617 271.527 184.456C271.527 184.902 271.483 185.336 271.399 185.756ZM258.521 185.756C258.437 185.336 258.393 184.9 258.393 184.456C258.393 183.617 258.55 182.817 258.843 182.079C259.022 182.541 259.251 182.978 259.525 183.381C259.045 184.087 258.698 184.89 258.521 185.756Z" fill="#8E9DBB"/>
<path d="M264.961 179.455C262.203 179.455 259.959 181.699 259.959 184.457C259.959 187.215 262.203 189.459 264.961 189.459C267.719 189.459 269.962 187.215 269.962 184.457C269.962 181.699 267.719 179.455 264.961 179.455ZM264.961 192.593C260.476 192.593 256.825 188.942 256.825 184.457C256.825 179.971 260.476 176.322 264.961 176.322C269.447 176.322 273.096 179.971 273.096 184.457C273.096 188.942 269.447 192.593 264.961 192.593Z" fill="#371A45"/>
<path d="M246.347 204.934C245.482 204.934 244.78 204.234 244.78 203.368V188.043L236.462 181.781V165.547C236.462 164.681 237.162 163.979 238.028 163.979C238.894 163.979 239.595 164.681 239.595 165.547V180.218L247.914 186.481V203.368C247.914 204.234 247.213 204.934 246.347 204.934Z" fill="#371A45"/>
<path d="M211.502 140.095C208.965 137.915 206.604 135.536 204.445 132.986C206.33 131.994 208.13 130.882 209.819 129.72C211.233 130.849 212.687 131.924 214.179 132.942C213.591 134.409 212.979 136.001 212.352 137.714C212.071 138.482 211.789 139.275 211.502 140.095Z" fill="#E7E3E8"/>
<path d="M204.445 132.986C203.981 132.438 203.528 131.884 203.084 131.321C204.842 130.416 206.53 129.396 208.125 128.323C208.684 128.798 209.248 129.262 209.82 129.72C208.13 130.882 206.331 131.994 204.445 132.986Z" fill="#371A45"/>
<path d="M291.175 142.466C290.518 140.516 289.865 138.688 289.226 136.985C291.925 135.545 294.53 133.937 297.026 132.172C298.11 132.791 299.224 133.375 300.367 133.91C297.594 137.061 294.514 139.924 291.175 142.466Z" fill="#E7E3E8"/>
<path d="M300.367 133.91C299.224 133.375 298.11 132.791 297.026 132.172C297.656 131.726 298.28 131.27 298.897 130.804C299.838 131.319 300.8 131.803 301.782 132.246C301.32 132.809 300.849 133.364 300.367 133.91Z" fill="#371A45"/>
<path d="M252.866 155.406C251.539 155.406 250.204 155.365 248.86 155.281C236.067 154.483 224.401 149.944 214.854 142.789C213.706 141.929 212.588 141.03 211.502 140.095C211.789 139.275 212.071 138.482 212.352 137.714C212.979 136.001 213.591 134.409 214.179 132.943C222.231 138.436 231.395 142.28 241.251 144.198C245.914 145.104 250.556 145.54 255.139 145.54C267.256 145.54 278.922 142.485 289.226 136.985C289.865 138.688 290.518 140.516 291.175 142.466C290.314 143.129 289.432 143.766 288.528 144.372C278.321 151.354 266.007 155.406 252.866 155.406Z" fill="#E7E3E8"/>
<path d="M320.283 103.127L320.182 103.114C319.399 103.02 318.842 102.308 318.938 101.526L323.936 60.4531C324.031 59.67 324.742 59.1135 325.525 59.209L325.626 59.2205C333.834 60.2201 339.677 67.6832 338.677 75.8899L336.952 90.075C335.952 98.2818 328.491 104.125 320.283 103.127Z" fill="white"/>
<path d="M320.33 102.746C328.311 103.723 335.6 98.0133 336.57 90.0294L338.297 75.843C339.268 67.8603 333.564 60.5742 325.58 59.6027L325.478 59.5899C324.905 59.5148 324.387 59.9286 324.317 60.4991L319.319 101.572C319.285 101.849 319.361 102.122 319.533 102.341C319.704 102.56 319.951 102.7 320.228 102.734L320.33 102.746ZM322.102 103.621C321.486 103.621 320.863 103.584 320.237 103.509L320.135 103.496C319.144 103.375 318.436 102.471 318.556 101.479L323.555 60.4062C323.614 59.9261 323.856 59.4982 324.235 59.199C324.617 58.901 325.092 58.7712 325.571 58.8272L325.673 58.8399C334.077 59.8637 340.082 67.5331 339.059 75.9359L337.333 90.1223C336.387 97.8987 329.747 103.621 322.102 103.621Z" fill="#371A45"/>
<path d="M322.119 101.102C322.093 101.102 322.069 101.102 322.044 101.102C323.302 98.1125 324.37 95.008 325.231 91.803C329.076 91.556 332.596 89.842 335.154 87.1565L334.831 89.8178C334.041 96.3119 328.502 101.104 322.119 101.102Z" fill="#B9AFBE"/>
<path d="M321.146 101.065C327.93 101.582 334 96.6405 334.831 89.8179L336.557 75.6315C337.388 68.8089 332.676 62.5656 325.969 61.4298L321.146 101.065ZM322.103 105.374C321.417 105.374 320.723 105.334 320.025 105.248L319.922 105.236C317.973 104.999 316.58 103.219 316.817 101.268L321.814 60.1947C322.053 58.2439 323.83 56.847 325.782 57.0877L325.885 57.1004C335.247 58.2401 341.938 66.7842 340.799 76.1472L339.072 90.3336C338.018 98.9987 330.621 105.374 322.103 105.374Z" fill="#371A45"/>
<path d="M189.927 42.7078L190.028 42.7193C190.811 42.8148 191.367 43.5266 191.272 44.3084L186.274 85.3817C186.179 86.1635 185.468 86.7212 184.685 86.6257L184.584 86.613C176.376 85.6147 170.533 78.1516 171.532 69.9448L173.258 55.7597C174.257 47.5517 181.719 41.7083 189.927 42.7078Z" fill="white"/>
<path d="M188.09 42.9792C184.848 42.9792 181.718 44.0538 179.125 46.0836C176.059 48.4851 174.11 51.9384 173.64 55.8056L171.913 69.9907C170.942 77.9746 176.646 85.2607 184.63 86.2323L184.729 86.245C185.006 86.2769 185.282 86.203 185.501 86.0298C185.72 85.8592 185.859 85.6122 185.893 85.3359L190.891 44.2627C190.961 43.6909 190.552 43.1702 189.982 43.1014L189.88 43.0887C189.282 43.0161 188.683 42.9792 188.09 42.9792ZM184.862 87.0205C184.788 87.0205 184.714 87.0154 184.639 87.0065L184.54 86.995C176.133 85.9713 170.128 78.3019 171.15 69.8978L172.877 55.7127C173.372 51.6418 175.424 48.0076 178.653 45.4787C181.882 42.9511 185.898 41.8319 189.973 42.3259L190.075 42.3387C191.066 42.4596 191.774 43.3637 191.654 44.3544L186.655 85.4288C186.597 85.9089 186.356 86.3367 185.974 86.636C185.653 86.8868 185.264 87.0205 184.862 87.0205Z" fill="#371A45"/>
<path d="M183.345 84.2201C177.12 82.7035 172.86 76.7175 173.653 70.2018L173.97 67.5952C175.905 70.5978 178.894 72.8975 182.483 73.9238C182.524 77.3848 182.813 80.8228 183.345 84.2201Z" fill="#B9AFBE"/>
<path d="M188.11 44.7337C181.718 44.7337 176.17 49.5164 175.379 56.0168L173.652 70.2019C172.822 77.0245 177.534 83.269 184.24 84.4049L189.064 44.7693C188.744 44.7451 188.426 44.7337 188.11 44.7337ZM184.866 88.7725C184.719 88.7725 184.573 88.7636 184.425 88.7457L184.338 88.7355C174.963 87.5946 168.271 79.0492 169.411 69.6862L171.138 55.5011C171.689 50.9654 173.975 46.9162 177.572 44.0982C181.169 41.2816 185.646 40.0325 190.184 40.5864L190.288 40.5991C192.237 40.8359 193.63 42.6161 193.393 44.5669L188.395 85.64C188.279 86.5848 187.804 87.4278 187.054 88.0148C186.422 88.5102 185.658 88.7725 184.866 88.7725Z" fill="#371A45"/>
<path d="M324.295 86.3736C316.864 124.581 279.866 149.531 241.658 142.101C203.451 134.669 178.501 97.6708 185.931 59.4639C193.363 21.2558 230.36 -3.69423 268.568 3.73705C306.776 11.1683 331.726 48.1655 324.295 86.3736Z" fill="white"/>
<path d="M254.966 2.80355C241.144 2.80355 227.637 6.90374 215.923 14.8036C200.4 25.2718 189.884 41.1581 186.308 59.5364C182.734 77.9147 186.531 96.5858 196.999 112.108C207.468 127.631 223.354 138.149 241.732 141.724C279.673 149.103 316.54 124.238 323.918 86.2997C327.492 67.9214 323.695 49.2516 313.228 33.7281C302.76 18.2047 286.874 7.68815 268.494 4.11386C263.986 3.23652 259.46 2.80355 254.966 2.80355ZM255.139 143.788C250.666 143.788 246.137 143.361 241.586 142.477C203.231 135.017 178.095 97.7445 185.556 59.39C189.17 40.8105 199.801 24.7497 215.493 14.1669C231.186 3.58539 250.06 -0.255048 268.642 3.35999C306.996 10.8193 332.131 48.0915 324.672 86.4461C318.097 120.25 288.36 143.788 255.139 143.788Z" fill="#371A45"/>
<path d="M255.134 141.266C250.826 141.266 246.451 140.855 242.067 140.003C226.875 137.049 213.431 129.229 203.471 117.695C213.316 125.356 227.431 132.921 243.512 135.648C249.221 136.616 254.757 137.036 260.033 137.036C270.371 137.036 279.703 135.422 287.341 133.15C277.613 138.366 266.588 141.268 255.134 141.266Z" fill="#B9AFBE"/>
<path d="M254.97 4.55675C241.494 4.55675 228.325 8.55381 216.903 16.2563C201.768 26.4635 191.514 41.9525 188.03 59.8711C184.545 77.7897 188.246 95.9935 198.452 111.129C208.658 126.264 224.147 136.518 242.067 140.003C279.054 147.195 315.003 122.955 322.198 85.9646C329.392 48.9738 305.151 13.0271 268.161 5.83393C263.765 4.97951 259.35 4.55675 254.97 4.55675ZM255.139 145.54C250.556 145.54 245.914 145.104 241.251 144.197C222.212 140.493 205.754 129.598 194.91 113.517C184.065 97.4362 180.131 78.0953 183.835 59.0549C187.537 40.0158 198.433 23.5577 214.514 12.7139C230.595 1.86873 249.938 -2.06337 268.976 1.63953C288.015 5.34244 304.473 16.2372 315.318 32.3183C326.162 48.3995 330.095 67.7417 326.392 86.7808C319.655 121.42 289.182 145.54 255.139 145.54Z" fill="#371A45"/>
<path d="M323.728 88.1066C321.3 101.683 314.639 113.498 305.237 122.579C298.189 129.386 272.513 138.915 243.785 134.043C217.146 129.526 195.485 111.018 191.234 102.19C185.562 90.4126 183.409 77.0208 185.837 63.4444C192.262 27.5181 225.792 18.1462 263.872 24.9561C301.951 31.7672 330.154 52.1803 323.728 88.1066Z" fill="#371A45"/>
<path d="M242.005 24.5257C231.203 24.5257 221.601 26.2498 213.627 29.67C199.184 35.8662 190.373 47.3263 187.439 63.7309C185.151 76.5306 186.97 89.585 192.701 101.483C196.771 109.937 217.998 128.02 244.057 132.437C272.936 137.337 297.794 127.504 304.106 121.409C313.605 112.234 319.837 100.62 322.126 87.8201C330.07 43.3993 283.833 30.1807 263.585 26.5593C255.995 25.2006 248.764 24.5257 242.005 24.5257ZM260.033 137.036C254.757 137.036 249.221 136.616 243.512 135.648C215.981 130.979 194.216 112.133 189.767 102.895C183.736 90.377 181.824 76.6363 184.234 63.1579C187.373 45.606 196.83 33.3322 212.342 26.6777C225.894 20.8635 243.813 19.7124 264.158 23.3542C284.505 26.9922 300.914 34.2821 311.61 44.4333C323.853 56.0513 328.47 70.8413 325.33 88.3944C322.921 101.87 316.363 114.097 306.367 123.75C300.742 129.184 282.833 137.036 260.033 137.036Z" fill="#371A45"/>
<path d="M301.263 93.1823C300.462 93.1823 299.667 93.046 298.903 92.762C294.225 91.0214 292.38 84.3758 294.782 77.9199C296.792 72.5196 301.136 68.9631 305.242 68.9631C306.044 68.9631 306.837 69.0981 307.603 69.3833C310.195 70.3473 311.917 72.8188 312.529 75.9296C310.676 81.6622 308.201 87.0893 305.191 92.147C303.914 92.8181 302.575 93.1823 301.263 93.1823Z" fill="#9B8DA2"/>
<path d="M287.351 108.997C286.638 108.997 285.934 108.832 285.286 108.481C282.898 107.193 282.179 103.894 283.681 101.11C284.775 99.0829 286.745 97.8897 288.658 97.8897C289.371 97.8897 290.075 98.0566 290.723 98.4055C293.111 99.6941 293.829 102.995 292.327 105.777C291.234 107.804 289.264 108.997 287.351 108.997Z" fill="#9B8DA2"/>
<path d="M259.867 133.761C254.806 133.761 249.501 133.362 244.057 132.437C235.66 131.013 227.765 128.171 220.783 124.689C225.288 125.178 229.713 125.401 234.016 125.401C261.739 125.402 284.448 116.152 291.687 109.159C296.908 104.118 301.461 98.4132 305.191 92.147C307.908 90.7183 310.356 87.8978 311.723 84.2242C312.794 81.3465 313.021 78.4305 312.529 75.9296C313.628 72.5272 314.508 69.0179 315.154 65.4092C315.807 61.7687 316.174 58.253 316.282 54.8595C321.844 63.2776 324.589 74.0502 322.126 87.8202C319.837 100.62 313.605 112.234 304.106 121.409C298.985 126.354 281.653 133.763 259.867 133.761Z" fill="#2A1A3B"/>
<path d="M259.781 135.379C254.629 135.379 249.264 134.974 243.782 134.045C233.639 132.328 224.22 128.579 216.205 124.103C217.738 124.33 219.266 124.525 220.783 124.689C227.765 128.172 235.66 131.014 244.057 132.437C249.501 133.362 254.806 133.762 259.867 133.762C281.653 133.763 298.985 126.354 304.106 121.409C313.605 112.234 319.837 100.62 322.126 87.8203C324.589 74.0503 321.844 63.2778 316.282 54.8597C316.31 53.9632 316.32 53.0731 316.314 52.1933C323.303 61.7434 326.307 73.6759 323.728 88.1043C321.299 101.683 314.635 113.499 305.239 122.58C299.533 128.089 281.626 135.377 259.781 135.379Z" fill="#2A1A3B"/>
<path d="M305.191 92.147C308.201 87.0892 310.676 81.6622 312.529 75.9296C313.021 78.4304 312.794 81.3464 311.723 84.2242C310.356 87.8978 307.908 90.7183 305.191 92.147Z" fill="#6B6577"/>
<path d="M323.434 56.5186C322.995 56.5186 322.559 56.3403 322.242 56.0016L322.075 55.8335L321.955 55.5775C313.175 37.0516 292.229 23.5808 264.49 18.6185C236.595 13.6308 212.245 19.3138 197.684 34.2171L197.487 34.3903C196.768 34.9302 195.748 34.7837 195.208 34.0643C194.705 33.3932 194.798 32.4611 195.396 31.8996C210.726 16.245 236.113 10.2386 265.063 15.4123C293.81 20.5553 315.597 34.6513 324.855 54.0967C325.247 54.7983 325.07 55.6972 324.411 56.1926C324.118 56.4116 323.775 56.5186 323.434 56.5186Z" fill="#371A45"/>
<path d="M197.499 87.5857C197.499 87.5857 192.709 50.1543 214.336 39.448C224.772 34.2807 236.57 32.7654 245.877 32.7654C255.856 32.7654 262.97 34.5074 262.475 35.3605C262.475 35.3605 230.735 37.2845 214.531 59.2053C202.034 76.1103 197.499 87.5857 197.499 87.5857Z" fill="#9B8DA2"/>
</svg>
