<svg width="207" height="34" viewBox="0 0 207 34" fill="none" xmlns="http://www.w3.org/2000/svg">
<rect width="30" height="30" fill="#E8502C"/>
<path d="M26.96 13.04V27H24.16V21.06H18.18V27H15.38V13.04H18.18V18.78H24.16V13.04H26.96Z" fill="#FCFCFC"/>
<path d="M36.18 15.3V18.8H40.88V21.02H36.18V24.72H41.48V27H33.38V13.02H41.48V15.3H36.18ZM44.0945 20C44.0945 18.6267 44.4012 17.4 45.0145 16.32C45.6412 15.2267 46.4879 14.38 47.5545 13.78C48.6345 13.1667 49.8412 12.86 51.1745 12.86C52.7345 12.86 54.1012 13.26 55.2745 14.06C56.4479 14.86 57.2679 15.9667 57.7345 17.38H54.5145C54.1945 16.7133 53.7412 16.2133 53.1545 15.88C52.5812 15.5467 51.9145 15.38 51.1545 15.38C50.3412 15.38 49.6145 15.5733 48.9745 15.96C48.3479 16.3333 47.8545 16.8667 47.4945 17.56C47.1479 18.2533 46.9745 19.0667 46.9745 20C46.9745 20.92 47.1479 21.7333 47.4945 22.44C47.8545 23.1333 48.3479 23.6733 48.9745 24.06C49.6145 24.4333 50.3412 24.62 51.1545 24.62C51.9145 24.62 52.5812 24.4533 53.1545 24.12C53.7412 23.7733 54.1945 23.2667 54.5145 22.6H57.7345C57.2679 24.0267 56.4479 25.14 55.2745 25.94C54.1145 26.7267 52.7479 27.12 51.1745 27.12C49.8412 27.12 48.6345 26.82 47.5545 26.22C46.4879 25.6067 45.6412 24.76 45.0145 23.68C44.4012 22.6 44.0945 21.3733 44.0945 20ZM71.2117 27.14C70.2384 27.14 69.3584 26.9733 68.5717 26.64C67.7984 26.3067 67.1851 25.8267 66.7317 25.2C66.2784 24.5733 66.0451 23.8333 66.0317 22.98H69.0317C69.0717 23.5533 69.2717 24.0067 69.6317 24.34C70.0051 24.6733 70.5117 24.84 71.1517 24.84C71.8051 24.84 72.3184 24.6867 72.6917 24.38C73.0651 24.06 73.2517 23.6467 73.2517 23.14C73.2517 22.7267 73.1251 22.3867 72.8717 22.12C72.6184 21.8533 72.2984 21.6467 71.9117 21.5C71.5384 21.34 71.0184 21.1667 70.3517 20.98C69.4451 20.7133 68.7051 20.4533 68.1317 20.2C67.5717 19.9333 67.0851 19.54 66.6717 19.02C66.2717 18.4867 66.0717 17.78 66.0717 16.9C66.0717 16.0733 66.2784 15.3533 66.6917 14.74C67.1051 14.1267 67.6851 13.66 68.4317 13.34C69.1784 13.0067 70.0317 12.84 70.9917 12.84C72.4317 12.84 73.5984 13.1933 74.4917 13.9C75.3984 14.5933 75.8984 15.5667 75.9917 16.82H72.9117C72.8851 16.34 72.6784 15.9467 72.2917 15.64C71.9184 15.32 71.4184 15.16 70.7917 15.16C70.2451 15.16 69.8051 15.3 69.4717 15.58C69.1517 15.86 68.9917 16.2667 68.9917 16.8C68.9917 17.1733 69.1117 17.4867 69.3517 17.74C69.6051 17.98 69.9117 18.18 70.2717 18.34C70.6451 18.4867 71.1651 18.66 71.8317 18.86C72.7384 19.1267 73.4784 19.3933 74.0517 19.66C74.6251 19.9267 75.1184 20.3267 75.5317 20.86C75.9451 21.3933 76.1517 22.0933 76.1517 22.96C76.1517 23.7067 75.9584 24.4 75.5717 25.04C75.1851 25.68 74.6184 26.1933 73.8717 26.58C73.1251 26.9533 72.2384 27.14 71.2117 27.14ZM87.8892 24.34H82.3292L81.4092 27H78.4692L83.4892 13.02H86.7492L91.7692 27H88.8092L87.8892 24.34ZM87.1292 22.1L85.1092 16.26L83.0892 22.1H87.1292ZM106.336 27H103.536L97.1956 17.42V27H94.3956V13.02H97.1956L103.536 22.62V13.02H106.336V27ZM109.173 20C109.173 18.6267 109.479 17.4 110.093 16.32C110.719 15.2267 111.566 14.38 112.633 13.78C113.713 13.1667 114.919 12.86 116.253 12.86C117.813 12.86 119.179 13.26 120.353 14.06C121.526 14.86 122.346 15.9667 122.813 17.38H119.593C119.273 16.7133 118.819 16.2133 118.233 15.88C117.659 15.5467 116.993 15.38 116.233 15.38C115.419 15.38 114.693 15.5733 114.053 15.96C113.426 16.3333 112.933 16.8667 112.573 17.56C112.226 18.2533 112.053 19.0667 112.053 20C112.053 20.92 112.226 21.7333 112.573 22.44C112.933 23.1333 113.426 23.6733 114.053 24.06C114.693 24.4333 115.419 24.62 116.233 24.62C116.993 24.62 117.659 24.4533 118.233 24.12C118.819 23.7733 119.273 23.2667 119.593 22.6H122.813C122.346 24.0267 121.526 25.14 120.353 25.94C119.193 26.7267 117.826 27.12 116.253 27.12C114.919 27.12 113.713 26.82 112.633 26.22C111.566 25.6067 110.719 24.76 110.093 23.68C109.479 22.6 109.173 21.3733 109.173 20ZM137.534 13.04V27H134.734V21.06H128.754V27H125.954V13.04H128.754V18.78H134.734V13.04H137.534ZM143.84 15.3V18.8H148.54V21.02H143.84V24.72H149.14V27H141.04V13.02H149.14V15.3H143.84ZM155.295 24.64H161.575V27H152.055V24.84L158.295 15.4H152.055V13.04H161.575V15.2L155.295 24.64Z" fill="#FCFCFC"/>
</svg>
